<svg width="1440" height="235" viewBox="0 0 1440 235" fill="none" xmlns="http://www.w3.org/2000/svg">
<g id="Graphic Side">
<g clip-path="url(#clip0_267_810)">
<path d="M0 0H1440V219C1440 227.837 1432.84 235 1424 235H16C7.16349 235 0 227.837 0 219V0Z" fill="url(#paint0_radial_267_810)"/>
<g id="Big Circles">
<g id="Ellipse 5" style="mix-blend-mode:multiply" opacity="0.75" filter="url(#filter0_i_267_810)">
<ellipse cx="884" cy="823.307" rx="1056.31" ry="1078" transform="rotate(90 884 823.307)" fill="white"/>
</g>
<g id="Ellipse 4" style="mix-blend-mode:multiply" opacity="0.75" filter="url(#filter1_i_267_810)">
<ellipse cx="863.164" cy="755.689" rx="817.689" ry="835.164" transform="rotate(90 863.164 755.689)" fill="white"/>
</g>
<g id="Ellipse 3" style="mix-blend-mode:multiply" opacity="0.75" filter="url(#filter2_i_267_810)">
<ellipse cx="609.228" cy="901.642" rx="694.765" ry="709.226" transform="rotate(90 609.228 901.642)" fill="white"/>
</g>
</g>
<g id="Frame 35289">
<g id="Frame 35288">
<path id="Ginjal Manusia" d="M60.8338 72.3125C60.6349 71.6212 60.3556 71.0104 59.9957 70.4801C59.6359 69.9403 59.1956 69.4858 58.6747 69.1165C58.1634 68.7377 57.5762 68.4489 56.9134 68.25C56.2599 68.0511 55.5355 67.9517 54.7401 67.9517C53.2533 67.9517 51.9465 68.321 50.8196 69.0597C49.7022 69.7983 48.831 70.8731 48.206 72.2841C47.581 73.6856 47.2685 75.3996 47.2685 77.4261C47.2685 79.4527 47.5762 81.1761 48.1918 82.5966C48.8073 84.017 49.6785 85.1013 50.8054 85.8494C51.9323 86.5881 53.2628 86.9574 54.7969 86.9574C56.1889 86.9574 57.3774 86.7112 58.3622 86.2188C59.3565 85.7169 60.1141 85.0114 60.6349 84.1023C61.1652 83.1932 61.4304 82.1184 61.4304 80.8778L62.6804 81.0625H55.1804V76.4318H67.3537V80.0966C67.3537 82.6534 66.8139 84.8504 65.7344 86.6875C64.6548 88.5152 63.1681 89.9261 61.2741 90.9205C59.3802 91.9053 57.2116 92.3977 54.7685 92.3977C52.0412 92.3977 49.6454 91.7964 47.581 90.5938C45.5166 89.3816 43.9067 87.6629 42.7514 85.4375C41.6056 83.2027 41.0327 80.5511 41.0327 77.483C41.0327 75.125 41.3736 73.0227 42.0554 71.1761C42.7467 69.3201 43.7126 67.7481 44.9531 66.4602C46.1937 65.1723 47.6378 64.1922 49.2855 63.5199C50.9332 62.8475 52.7183 62.5114 54.6406 62.5114C56.2884 62.5114 57.8224 62.7528 59.2429 63.2358C60.6634 63.7093 61.9228 64.3816 63.0213 65.2528C64.1293 66.1241 65.0336 67.161 65.7344 68.3636C66.4351 69.5568 66.8849 70.8731 67.0838 72.3125H60.8338ZM73.2273 92V70.1818H79.2784V92H73.2273ZM76.267 67.3693C75.3674 67.3693 74.5956 67.071 73.9517 66.4744C73.3172 65.8684 73 65.1439 73 64.3011C73 63.4678 73.3172 62.7528 73.9517 62.1562C74.5956 61.5502 75.3674 61.2472 76.267 61.2472C77.1667 61.2472 77.9337 61.5502 78.5682 62.1562C79.2121 62.7528 79.5341 63.4678 79.5341 64.3011C79.5341 65.1439 79.2121 65.8684 78.5682 66.4744C77.9337 67.071 77.1667 67.3693 76.267 67.3693ZM90.1768 79.3864V92H84.1257V70.1818H89.8928V74.0312H90.1484C90.6314 72.7623 91.4411 71.7585 92.5774 71.0199C93.7138 70.2718 95.0916 69.8977 96.7109 69.8977C98.2261 69.8977 99.5471 70.2292 100.674 70.892C101.801 71.5549 102.677 72.5019 103.302 73.733C103.927 74.9545 104.239 76.4129 104.239 78.108V92H98.1882V79.1875C98.1977 77.8523 97.8568 76.8106 97.1655 76.0625C96.4742 75.3049 95.5225 74.9261 94.3104 74.9261C93.496 74.9261 92.7763 75.1013 92.1513 75.4517C91.5357 75.8021 91.0528 76.3134 90.7024 76.9858C90.3615 77.6487 90.1863 78.4489 90.1768 79.3864ZM109.009 70.1818H115.06V93.0795C115.06 94.7652 114.728 96.1288 114.065 97.1705C113.402 98.2121 112.451 98.9744 111.21 99.4574C109.979 99.9403 108.507 100.182 106.793 100.182C106.584 100.182 106.385 100.177 106.196 100.168C105.997 100.168 105.789 100.163 105.571 100.153V95.4233C105.732 95.4328 105.874 95.4375 105.997 95.4375C106.111 95.447 106.234 95.4517 106.366 95.4517C107.342 95.4517 108.024 95.2434 108.412 94.8267C108.81 94.4195 109.009 93.804 109.009 92.9801V70.1818ZM112.02 67.3693C111.13 67.3693 110.363 67.071 109.719 66.4744C109.075 65.8684 108.753 65.1439 108.753 64.3011C108.753 63.4678 109.075 62.7528 109.719 62.1562C110.363 61.5502 111.13 61.2472 112.02 61.2472C112.929 61.2472 113.701 61.5502 114.335 62.1562C114.979 62.7528 115.301 63.4678 115.301 64.3011C115.301 65.1439 114.979 65.8684 114.335 66.4744C113.701 67.071 112.929 67.3693 112.02 67.3693ZM126.129 92.4119C124.737 92.4119 123.496 92.1705 122.407 91.6875C121.318 91.1951 120.456 90.4706 119.822 89.5142C119.197 88.5483 118.884 87.3456 118.884 85.9062C118.884 84.6941 119.107 83.6761 119.552 82.8523C119.997 82.0284 120.603 81.3655 121.37 80.8636C122.137 80.3617 123.008 79.983 123.984 79.7273C124.969 79.4716 126.001 79.2917 127.08 79.1875C128.349 79.0549 129.372 78.9318 130.148 78.8182C130.925 78.6951 131.488 78.5152 131.839 78.2784C132.189 78.0417 132.364 77.6913 132.364 77.2273V77.142C132.364 76.2424 132.08 75.5464 131.512 75.054C130.953 74.5616 130.158 74.3153 129.126 74.3153C128.037 74.3153 127.17 74.5568 126.526 75.0398C125.882 75.5133 125.456 76.1098 125.248 76.8295L119.651 76.375C119.935 75.0492 120.494 73.9034 121.327 72.9375C122.161 71.9621 123.236 71.214 124.552 70.6932C125.878 70.1629 127.412 69.8977 129.154 69.8977C130.366 69.8977 131.526 70.0398 132.634 70.3239C133.752 70.608 134.741 71.0483 135.603 71.6449C136.474 72.2415 137.161 73.0085 137.663 73.946C138.165 74.8741 138.415 75.9867 138.415 77.2841V92H132.677V88.9744H132.506C132.156 89.6562 131.687 90.2576 131.1 90.7784C130.513 91.2898 129.808 91.6922 128.984 91.9858C128.16 92.2699 127.208 92.4119 126.129 92.4119ZM127.862 88.2358C128.752 88.2358 129.538 88.0606 130.219 87.7102C130.901 87.3504 131.436 86.8674 131.825 86.2614C132.213 85.6553 132.407 84.9687 132.407 84.2017V81.8864C132.218 82.0095 131.957 82.1231 131.626 82.2273C131.304 82.322 130.939 82.4119 130.532 82.4972C130.125 82.5729 129.718 82.6439 129.31 82.7102C128.903 82.767 128.534 82.8191 128.202 82.8665C127.492 82.9706 126.872 83.1364 126.342 83.3636C125.811 83.5909 125.399 83.8987 125.106 84.2869C124.812 84.6657 124.665 85.1392 124.665 85.7074C124.665 86.5312 124.964 87.161 125.56 87.5966C126.166 88.0227 126.933 88.2358 127.862 88.2358ZM149.161 62.9091V92H143.11V62.9091H149.161ZM163.38 62.9091H170.965L178.977 82.4545H179.317L187.329 62.9091H194.914V92H188.948V73.0653H188.707L181.178 91.858H177.116L169.587 72.9943H169.346V92H163.38V62.9091ZM206.089 92.4119C204.697 92.4119 203.457 92.1705 202.368 91.6875C201.279 91.1951 200.417 90.4706 199.783 89.5142C199.158 88.5483 198.845 87.3456 198.845 85.9062C198.845 84.6941 199.068 83.6761 199.513 82.8523C199.958 82.0284 200.564 81.3655 201.331 80.8636C202.098 80.3617 202.969 79.983 203.945 79.7273C204.929 79.4716 205.962 79.2917 207.041 79.1875C208.31 79.0549 209.333 78.9318 210.109 78.8182C210.886 78.6951 211.449 78.5152 211.8 78.2784C212.15 78.0417 212.325 77.6913 212.325 77.2273V77.142C212.325 76.2424 212.041 75.5464 211.473 75.054C210.914 74.5616 210.119 74.3153 209.087 74.3153C207.998 74.3153 207.131 74.5568 206.487 75.0398C205.843 75.5133 205.417 76.1098 205.209 76.8295L199.612 76.375C199.896 75.0492 200.455 73.9034 201.288 72.9375C202.122 71.9621 203.196 71.214 204.513 70.6932C205.839 70.1629 207.373 69.8977 209.115 69.8977C210.327 69.8977 211.487 70.0398 212.595 70.3239C213.713 70.608 214.702 71.0483 215.564 71.6449C216.435 72.2415 217.122 73.0085 217.624 73.946C218.125 74.8741 218.376 75.9867 218.376 77.2841V92H212.638V88.9744H212.467C212.117 89.6562 211.648 90.2576 211.061 90.7784C210.474 91.2898 209.768 91.6922 208.945 91.9858C208.121 92.2699 207.169 92.4119 206.089 92.4119ZM207.822 88.2358C208.713 88.2358 209.499 88.0606 210.18 87.7102C210.862 87.3504 211.397 86.8674 211.786 86.2614C212.174 85.6553 212.368 84.9687 212.368 84.2017V81.8864C212.179 82.0095 211.918 82.1231 211.587 82.2273C211.265 82.322 210.9 82.4119 210.493 82.4972C210.086 82.5729 209.679 82.6439 209.271 82.7102C208.864 82.767 208.495 82.8191 208.163 82.8665C207.453 82.9706 206.833 83.1364 206.303 83.3636C205.772 83.5909 205.36 83.8987 205.067 84.2869C204.773 84.6657 204.626 85.1392 204.626 85.7074C204.626 86.5312 204.925 87.161 205.521 87.5966C206.127 88.0227 206.894 88.2358 207.822 88.2358ZM229.122 79.3864V92H223.071V70.1818H228.838V74.0312H229.094C229.577 72.7623 230.386 71.7585 231.523 71.0199C232.659 70.2718 234.037 69.8977 235.656 69.8977C237.171 69.8977 238.492 70.2292 239.619 70.892C240.746 71.5549 241.622 72.5019 242.247 73.733C242.872 74.9545 243.185 76.4129 243.185 78.108V92H237.134V79.1875C237.143 77.8523 236.802 76.8106 236.111 76.0625C235.42 75.3049 234.468 74.9261 233.256 74.9261C232.441 74.9261 231.722 75.1013 231.097 75.4517C230.481 75.8021 229.998 76.3134 229.648 76.9858C229.307 77.6487 229.132 78.4489 229.122 79.3864ZM261.945 82.7102V70.1818H267.996V92H262.187V88.0369H261.96C261.467 89.3153 260.648 90.3428 259.502 91.1193C258.366 91.8958 256.978 92.2841 255.34 92.2841C253.882 92.2841 252.599 91.9527 251.491 91.2898C250.383 90.6269 249.516 89.6847 248.891 88.4631C248.276 87.2415 247.963 85.7784 247.954 84.0739V70.1818H254.005V82.9943C254.014 84.2822 254.36 85.3002 255.042 86.0483C255.724 86.7964 256.638 87.1705 257.783 87.1705C258.513 87.1705 259.194 87.0047 259.829 86.6733C260.463 86.3324 260.975 85.8305 261.363 85.1676C261.761 84.5047 261.955 83.6856 261.945 82.7102ZM290.99 76.4034L285.45 76.7443C285.356 76.2708 285.152 75.8447 284.839 75.4659C284.527 75.0777 284.115 74.7699 283.604 74.5426C283.102 74.3059 282.5 74.1875 281.8 74.1875C280.862 74.1875 280.071 74.3864 279.428 74.7841C278.784 75.1723 278.462 75.6932 278.462 76.3466C278.462 76.8674 278.67 77.3078 279.087 77.6676C279.503 78.0275 280.218 78.3163 281.232 78.5341L285.18 79.3295C287.302 79.7652 288.883 80.4659 289.925 81.4318C290.966 82.3977 291.487 83.6667 291.487 85.2386C291.487 86.6686 291.066 87.9233 290.223 89.0028C289.39 90.0824 288.244 90.9252 286.786 91.5312C285.337 92.1278 283.665 92.4261 281.771 92.4261C278.883 92.4261 276.582 91.8248 274.868 90.6222C273.163 89.41 272.164 87.7623 271.871 85.679L277.822 85.3665C278.002 86.2472 278.438 86.9195 279.129 87.3835C279.821 87.8381 280.706 88.0653 281.786 88.0653C282.846 88.0653 283.698 87.8617 284.342 87.4545C284.996 87.0379 285.327 86.5028 285.337 85.8494C285.327 85.3002 285.095 84.8504 284.641 84.5C284.186 84.1402 283.485 83.8655 282.538 83.6761L278.76 82.9233C276.629 82.4972 275.043 81.7585 274.001 80.7074C272.969 79.6562 272.453 78.3163 272.453 76.6875C272.453 75.286 272.832 74.0786 273.589 73.0653C274.357 72.0521 275.431 71.2708 276.814 70.7216C278.206 70.1723 279.835 69.8977 281.7 69.8977C284.456 69.8977 286.625 70.4801 288.206 71.6449C289.797 72.8097 290.725 74.3958 290.99 76.4034ZM295.298 92V70.1818H301.349V92H295.298ZM298.337 67.3693C297.438 67.3693 296.666 67.071 296.022 66.4744C295.388 65.8684 295.07 65.1439 295.07 64.3011C295.07 63.4678 295.388 62.7528 296.022 62.1562C296.666 61.5502 297.438 61.2472 298.337 61.2472C299.237 61.2472 300.004 61.5502 300.638 62.1562C301.282 62.7528 301.604 63.4678 301.604 64.3011C301.604 65.1439 301.282 65.8684 300.638 66.4744C300.004 67.071 299.237 67.3693 298.337 67.3693ZM312.418 92.4119C311.026 92.4119 309.785 92.1705 308.696 91.6875C307.607 91.1951 306.745 90.4706 306.111 89.5142C305.486 88.5483 305.173 87.3456 305.173 85.9062C305.173 84.6941 305.396 83.6761 305.841 82.8523C306.286 82.0284 306.892 81.3655 307.659 80.8636C308.426 80.3617 309.297 79.983 310.273 79.7273C311.258 79.4716 312.29 79.2917 313.369 79.1875C314.638 79.0549 315.661 78.9318 316.438 78.8182C317.214 78.6951 317.777 78.5152 318.128 78.2784C318.478 78.0417 318.653 77.6913 318.653 77.2273V77.142C318.653 76.2424 318.369 75.5464 317.801 75.054C317.242 74.5616 316.447 74.3153 315.415 74.3153C314.326 74.3153 313.459 74.5568 312.815 75.0398C312.171 75.5133 311.745 76.1098 311.537 76.8295L305.94 76.375C306.224 75.0492 306.783 73.9034 307.616 72.9375C308.45 71.9621 309.525 71.214 310.841 70.6932C312.167 70.1629 313.701 69.8977 315.443 69.8977C316.655 69.8977 317.815 70.0398 318.923 70.3239C320.041 70.608 321.03 71.0483 321.892 71.6449C322.763 72.2415 323.45 73.0085 323.952 73.946C324.454 74.8741 324.705 75.9867 324.705 77.2841V92H318.966V88.9744H318.795C318.445 89.6562 317.976 90.2576 317.389 90.7784C316.802 91.2898 316.097 91.6922 315.273 91.9858C314.449 92.2699 313.497 92.4119 312.418 92.4119ZM314.151 88.2358C315.041 88.2358 315.827 88.0606 316.509 87.7102C317.19 87.3504 317.725 86.8674 318.114 86.2614C318.502 85.6553 318.696 84.9687 318.696 84.2017V81.8864C318.507 82.0095 318.246 82.1231 317.915 82.2273C317.593 82.322 317.228 82.4119 316.821 82.4972C316.414 82.5729 316.007 82.6439 315.599 82.7102C315.192 82.767 314.823 82.8191 314.491 82.8665C313.781 82.9706 313.161 83.1364 312.631 83.3636C312.1 83.5909 311.688 83.8987 311.395 84.2869C311.101 84.6657 310.955 85.1392 310.955 85.7074C310.955 86.5312 311.253 87.161 311.849 87.5966C312.455 88.0227 313.223 88.2358 314.151 88.2358Z" fill="white"/>
<path id="Fungsi Ginjal,Tanda dan GejalaGagal Ginjal, Mengapa Harus Menjalani Dialisis" d="M41.0223 132V115.273H51.3952V117.445H43.5461V122.542H50.6519V124.706H43.5461V132H41.0223ZM61.4638 126.797V119.455H63.9141V132H61.5128V129.827H61.3821C61.0935 130.497 60.6307 131.055 59.9936 131.502C59.362 131.943 58.5752 132.163 57.6332 132.163C56.8273 132.163 56.114 131.986 55.4933 131.632C54.878 131.273 54.3933 130.742 54.0394 130.04C53.6909 129.337 53.5167 128.469 53.5167 127.434V119.455H55.9588V127.14C55.9588 127.995 56.1957 128.676 56.6694 129.182C57.1431 129.689 57.7584 129.942 58.5153 129.942C58.9727 129.942 59.4273 129.827 59.8793 129.599C60.3366 129.37 60.7151 129.024 61.0146 128.561C61.3195 128.099 61.4692 127.511 61.4638 126.797ZM69.6375 124.551V132H67.1954V119.455H69.5395V121.496H69.6947C69.9833 120.832 70.4352 120.299 71.0505 119.896C71.6713 119.493 72.4526 119.291 73.3946 119.291C74.2495 119.291 74.9982 119.471 75.6407 119.83C76.2832 120.184 76.7815 120.712 77.1354 121.415C77.4893 122.117 77.6663 122.986 77.6663 124.02V132H75.2242V124.314C75.2242 123.405 74.9873 122.694 74.5136 122.183C74.0399 121.665 73.3892 121.407 72.5615 121.407C71.9952 121.407 71.4916 121.529 71.0505 121.774C70.6149 122.019 70.2691 122.379 70.0132 122.852C69.7628 123.321 69.6375 123.887 69.6375 124.551ZM86.2014 136.966C85.205 136.966 84.3474 136.835 83.6286 136.574C82.9153 136.313 82.3327 135.967 81.8808 135.537C81.4288 135.106 81.0912 134.635 80.868 134.124L82.9671 133.258C83.1141 133.497 83.3101 133.751 83.5551 134.017C83.8056 134.29 84.1432 134.521 84.5679 134.712C84.9981 134.902 85.5508 134.998 86.2259 134.998C87.1516 134.998 87.9166 134.772 88.521 134.32C89.1254 133.873 89.4276 133.16 89.4276 132.18V129.713H89.2725C89.1254 129.98 88.9131 130.277 88.6354 130.603C88.3631 130.93 87.9874 131.213 87.5083 131.453C87.0291 131.692 86.4056 131.812 85.6379 131.812C84.6469 131.812 83.7539 131.581 82.9589 131.118C82.1694 130.65 81.5432 129.961 81.0803 129.051C80.623 128.137 80.3943 127.012 80.3943 125.678C80.3943 124.344 80.6202 123.201 81.0722 122.248C81.5296 121.295 82.1557 120.565 82.9507 120.059C83.7457 119.547 84.6469 119.291 85.6542 119.291C86.4329 119.291 87.0618 119.422 87.5409 119.683C88.0201 119.939 88.3931 120.239 88.6599 120.582C88.9321 120.925 89.1418 121.227 89.2888 121.488H89.4685V119.455H91.8616V132.278C91.8616 133.356 91.6111 134.241 91.1102 134.932C90.6092 135.624 89.9313 136.136 89.0764 136.468C88.227 136.8 87.2687 136.966 86.2014 136.966ZM86.1769 129.787C86.8794 129.787 87.4729 129.623 87.9575 129.297C88.4475 128.964 88.8178 128.491 89.0683 127.875C89.3242 127.255 89.4521 126.511 89.4521 125.646C89.4521 124.802 89.3269 124.058 89.0764 123.416C88.826 122.773 88.4584 122.272 87.9738 121.913C87.4892 121.548 86.8902 121.366 86.1769 121.366C85.4419 121.366 84.8293 121.556 84.3392 121.938C83.8492 122.313 83.4789 122.825 83.2284 123.473C82.9834 124.121 82.8609 124.845 82.8609 125.646C82.8609 126.468 82.9861 127.189 83.2366 127.81C83.4871 128.431 83.8573 128.915 84.3474 129.264C84.8429 129.612 85.4527 129.787 86.1769 129.787ZM104.538 122.517L102.324 122.909C102.232 122.626 102.085 122.357 101.883 122.101C101.687 121.845 101.42 121.635 101.083 121.472C100.745 121.309 100.323 121.227 99.8169 121.227C99.1253 121.227 98.5481 121.382 98.0853 121.692C97.6225 121.997 97.3911 122.392 97.3911 122.877C97.3911 123.296 97.5463 123.634 97.8566 123.89C98.167 124.145 98.6679 124.355 99.3595 124.518L101.352 124.976C102.507 125.243 103.367 125.654 103.933 126.209C104.5 126.765 104.783 127.486 104.783 128.374C104.783 129.125 104.565 129.795 104.129 130.383C103.699 130.965 103.098 131.423 102.324 131.755C101.557 132.087 100.666 132.253 99.6535 132.253C98.2487 132.253 97.1025 131.954 96.2149 131.355C95.3274 130.75 94.7829 129.893 94.5814 128.782L96.9419 128.423C97.0889 129.038 97.3911 129.503 97.8485 129.819C98.3058 130.13 98.9021 130.285 99.6372 130.285C100.438 130.285 101.077 130.119 101.557 129.787C102.036 129.449 102.275 129.038 102.275 128.553C102.275 128.161 102.128 127.832 101.834 127.565C101.546 127.298 101.102 127.097 100.503 126.961L98.3794 126.495C97.2087 126.228 96.3429 125.804 95.782 125.221C95.2267 124.638 94.949 123.9 94.949 123.007C94.949 122.267 95.1559 121.619 95.5697 121.064C95.9835 120.508 96.5552 120.075 97.2849 119.765C98.0145 119.449 98.8503 119.291 99.7923 119.291C101.148 119.291 102.215 119.585 102.994 120.173C103.773 120.756 104.287 121.537 104.538 122.517ZM107.468 132V119.455H109.91V132H107.468ZM108.701 117.519C108.276 117.519 107.912 117.377 107.607 117.094C107.307 116.806 107.157 116.462 107.157 116.065C107.157 115.662 107.307 115.319 107.607 115.036C107.912 114.747 108.276 114.603 108.701 114.603C109.126 114.603 109.488 114.747 109.787 115.036C110.092 115.319 110.245 115.662 110.245 116.065C110.245 116.462 110.092 116.806 109.787 117.094C109.488 117.377 109.126 117.519 108.701 117.519ZM130.799 120.557C130.641 120.062 130.428 119.618 130.162 119.226C129.9 118.828 129.587 118.491 129.222 118.213C128.857 117.93 128.441 117.715 127.973 117.568C127.51 117.421 127.001 117.347 126.445 117.347C125.503 117.347 124.654 117.59 123.897 118.074C123.14 118.559 122.541 119.269 122.1 120.206C121.665 121.137 121.447 122.278 121.447 123.628C121.447 124.984 121.667 126.13 122.108 127.067C122.549 128.003 123.154 128.714 123.922 129.199C124.689 129.683 125.563 129.925 126.543 129.925C127.453 129.925 128.245 129.74 128.92 129.37C129.601 129 130.126 128.477 130.496 127.802C130.872 127.121 131.06 126.321 131.06 125.401L131.713 125.523H126.927V123.44H133.502V125.343C133.502 126.748 133.203 127.968 132.604 129.002C132.01 130.032 131.188 130.827 130.137 131.387C129.092 131.948 127.894 132.229 126.543 132.229C125.03 132.229 123.701 131.88 122.558 131.183C121.42 130.486 120.532 129.498 119.895 128.218C119.258 126.933 118.939 125.409 118.939 123.645C118.939 122.31 119.124 121.113 119.495 120.051C119.865 118.989 120.385 118.088 121.055 117.347C121.73 116.601 122.522 116.032 123.431 115.64C124.346 115.243 125.345 115.044 126.429 115.044C127.333 115.044 128.174 115.177 128.953 115.444C129.737 115.711 130.434 116.089 131.044 116.58C131.659 117.07 132.168 117.652 132.571 118.327C132.974 118.997 133.246 119.74 133.388 120.557H130.799ZM137.296 132V119.455H139.738V132H137.296ZM138.529 117.519C138.105 117.519 137.74 117.377 137.435 117.094C137.135 116.806 136.986 116.462 136.986 116.065C136.986 115.662 137.135 115.319 137.435 115.036C137.74 114.747 138.105 114.603 138.529 114.603C138.954 114.603 139.316 114.747 139.616 115.036C139.921 115.319 140.073 115.662 140.073 116.065C140.073 116.462 139.921 116.806 139.616 117.094C139.316 117.377 138.954 117.519 138.529 117.519ZM145.466 124.551V132H143.024V119.455H145.368V121.496H145.523C145.811 120.832 146.263 120.299 146.879 119.896C147.499 119.493 148.281 119.291 149.223 119.291C150.078 119.291 150.826 119.471 151.469 119.83C152.111 120.184 152.61 120.712 152.964 121.415C153.317 122.117 153.494 122.986 153.494 124.02V132H151.052V124.314C151.052 123.405 150.815 122.694 150.342 122.183C149.868 121.665 149.217 121.407 148.39 121.407C147.823 121.407 147.32 121.529 146.879 121.774C146.443 122.019 146.097 122.379 145.841 122.852C145.591 123.321 145.466 123.887 145.466 124.551ZM156.77 119.455H159.212V132.817C159.212 133.655 159.059 134.363 158.754 134.94C158.455 135.518 158.008 135.956 157.415 136.255C156.827 136.555 156.1 136.705 155.234 136.705C155.147 136.705 155.065 136.705 154.989 136.705C154.907 136.705 154.823 136.702 154.736 136.696V134.597C154.812 134.597 154.88 134.597 154.94 134.597C154.995 134.597 155.057 134.597 155.128 134.597C155.705 134.597 156.122 134.442 156.378 134.132C156.639 133.827 156.77 133.383 156.77 132.8V119.455ZM157.978 117.519C157.554 117.519 157.189 117.377 156.884 117.094C156.584 116.806 156.435 116.462 156.435 116.065C156.435 115.662 156.584 115.319 156.884 115.036C157.189 114.747 157.554 114.603 157.978 114.603C158.403 114.603 158.765 114.747 159.065 115.036C159.37 115.319 159.522 115.662 159.522 116.065C159.522 116.462 159.37 116.806 159.065 117.094C158.765 117.377 158.403 117.519 157.978 117.519ZM166.148 132.278C165.353 132.278 164.634 132.131 163.992 131.837C163.349 131.537 162.84 131.104 162.464 130.538C162.094 129.972 161.909 129.277 161.909 128.455C161.909 127.747 162.045 127.165 162.317 126.707C162.59 126.25 162.957 125.888 163.42 125.621C163.883 125.354 164.4 125.153 164.972 125.017C165.544 124.881 166.126 124.777 166.72 124.706C167.471 124.619 168.081 124.548 168.549 124.494C169.018 124.434 169.358 124.339 169.57 124.208C169.783 124.077 169.889 123.865 169.889 123.571V123.514C169.889 122.801 169.687 122.248 169.284 121.856C168.887 121.464 168.293 121.268 167.504 121.268C166.682 121.268 166.034 121.45 165.56 121.815C165.092 122.174 164.768 122.575 164.588 123.016L162.293 122.493C162.565 121.731 162.963 121.115 163.485 120.647C164.014 120.173 164.621 119.83 165.307 119.618C165.993 119.4 166.714 119.291 167.471 119.291C167.972 119.291 168.503 119.351 169.064 119.471C169.63 119.585 170.158 119.798 170.648 120.108C171.144 120.418 171.55 120.862 171.865 121.439C172.181 122.011 172.339 122.754 172.339 123.669V132H169.954V130.285H169.856C169.698 130.601 169.461 130.911 169.146 131.216C168.83 131.521 168.424 131.774 167.929 131.975C167.433 132.177 166.84 132.278 166.148 132.278ZM166.679 130.317C167.354 130.317 167.931 130.184 168.411 129.917C168.895 129.65 169.263 129.302 169.513 128.872C169.769 128.436 169.897 127.971 169.897 127.475V125.858C169.81 125.945 169.641 126.027 169.391 126.103C169.146 126.174 168.865 126.236 168.549 126.291C168.234 126.34 167.926 126.386 167.626 126.43C167.327 126.468 167.076 126.5 166.875 126.528C166.401 126.588 165.968 126.688 165.576 126.83C165.19 126.971 164.879 127.176 164.645 127.442C164.417 127.704 164.302 128.052 164.302 128.488C164.302 129.092 164.525 129.55 164.972 129.86C165.418 130.165 165.987 130.317 166.679 130.317ZM178.034 115.273V132H175.592V115.273H178.034ZM184.497 129.713L184.374 130.603C184.292 131.257 184.154 131.937 183.958 132.645C183.767 133.359 183.568 134.02 183.361 134.63C183.16 135.24 182.994 135.724 182.863 136.084H181.132C181.202 135.746 181.3 135.289 181.426 134.712C181.551 134.14 181.673 133.5 181.793 132.792C181.913 132.084 182.003 131.363 182.063 130.628L182.144 129.713H184.497ZM186.53 117.445V115.273H199.476V117.445H194.257V132H191.741V117.445H186.53ZM204.085 132.278C203.29 132.278 202.571 132.131 201.928 131.837C201.286 131.537 200.777 131.104 200.401 130.538C200.031 129.972 199.846 129.277 199.846 128.455C199.846 127.747 199.982 127.165 200.254 126.707C200.526 126.25 200.894 125.888 201.357 125.621C201.819 125.354 202.337 125.153 202.908 125.017C203.48 124.881 204.063 124.777 204.656 124.706C205.408 124.619 206.018 124.548 206.486 124.494C206.954 124.434 207.294 124.339 207.507 124.208C207.719 124.077 207.825 123.865 207.825 123.571V123.514C207.825 122.801 207.624 122.248 207.221 121.856C206.823 121.464 206.23 121.268 205.44 121.268C204.618 121.268 203.97 121.45 203.497 121.815C203.028 122.174 202.704 122.575 202.525 123.016L200.229 122.493C200.502 121.731 200.899 121.115 201.422 120.647C201.95 120.173 202.557 119.83 203.243 119.618C203.929 119.4 204.651 119.291 205.408 119.291C205.909 119.291 206.44 119.351 207 119.471C207.567 119.585 208.095 119.798 208.585 120.108C209.08 120.418 209.486 120.862 209.802 121.439C210.118 122.011 210.276 122.754 210.276 123.669V132H207.891V130.285H207.793C207.635 130.601 207.398 130.911 207.082 131.216C206.766 131.521 206.361 131.774 205.865 131.975C205.37 132.177 204.776 132.278 204.085 132.278ZM204.616 130.317C205.291 130.317 205.868 130.184 206.347 129.917C206.832 129.65 207.199 129.302 207.45 128.872C207.706 128.436 207.834 127.971 207.834 127.475V125.858C207.746 125.945 207.578 126.027 207.327 126.103C207.082 126.174 206.802 126.236 206.486 126.291C206.17 126.34 205.862 126.386 205.563 126.43C205.263 126.468 205.013 126.5 204.812 126.528C204.338 126.588 203.905 126.688 203.513 126.83C203.126 126.971 202.816 127.176 202.582 127.442C202.353 127.704 202.239 128.052 202.239 128.488C202.239 129.092 202.462 129.55 202.908 129.86C203.355 130.165 203.924 130.317 204.616 130.317ZM215.971 124.551V132H213.528V119.455H215.873V121.496H216.028C216.316 120.832 216.768 120.299 217.384 119.896C218.004 119.493 218.786 119.291 219.728 119.291C220.583 119.291 221.331 119.471 221.974 119.83C222.616 120.184 223.114 120.712 223.468 121.415C223.822 122.117 223.999 122.986 223.999 124.02V132H221.557V124.314C221.557 123.405 221.32 122.694 220.847 122.183C220.373 121.665 219.722 121.407 218.895 121.407C218.328 121.407 217.825 121.529 217.384 121.774C216.948 122.019 216.602 122.379 216.346 122.852C216.096 123.321 215.971 123.887 215.971 124.551ZM231.971 132.245C230.958 132.245 230.054 131.986 229.259 131.469C228.47 130.946 227.849 130.203 227.397 129.239C226.951 128.27 226.727 127.108 226.727 125.752C226.727 124.396 226.953 123.236 227.405 122.272C227.863 121.309 228.489 120.571 229.284 120.059C230.079 119.547 230.98 119.291 231.987 119.291C232.766 119.291 233.392 119.422 233.866 119.683C234.345 119.939 234.715 120.239 234.977 120.582C235.243 120.925 235.45 121.227 235.597 121.488H235.744V115.273H238.186V132H235.801V130.048H235.597C235.45 130.315 235.238 130.62 234.96 130.963C234.688 131.306 234.312 131.605 233.833 131.861C233.354 132.117 232.733 132.245 231.971 132.245ZM232.51 130.162C233.212 130.162 233.806 129.977 234.29 129.607C234.781 129.231 235.151 128.711 235.401 128.047C235.657 127.383 235.785 126.609 235.785 125.727C235.785 124.856 235.66 124.094 235.409 123.44C235.159 122.787 234.791 122.278 234.307 121.913C233.822 121.548 233.223 121.366 232.51 121.366C231.775 121.366 231.162 121.556 230.672 121.938C230.182 122.319 229.812 122.839 229.561 123.498C229.316 124.156 229.194 124.9 229.194 125.727C229.194 126.566 229.319 127.32 229.57 127.99C229.82 128.659 230.19 129.19 230.68 129.582C231.176 129.969 231.786 130.162 232.51 130.162ZM245.323 132.278C244.528 132.278 243.809 132.131 243.167 131.837C242.524 131.537 242.015 131.104 241.639 130.538C241.269 129.972 241.084 129.277 241.084 128.455C241.084 127.747 241.22 127.165 241.492 126.707C241.765 126.25 242.132 125.888 242.595 125.621C243.058 125.354 243.575 125.153 244.147 125.017C244.718 124.881 245.301 124.777 245.895 124.706C246.646 124.619 247.256 124.548 247.724 124.494C248.192 124.434 248.533 124.339 248.745 124.208C248.957 124.077 249.064 123.865 249.064 123.571V123.514C249.064 122.801 248.862 122.248 248.459 121.856C248.062 121.464 247.468 121.268 246.679 121.268C245.857 121.268 245.209 121.45 244.735 121.815C244.267 122.174 243.943 122.575 243.763 123.016L241.468 122.493C241.74 121.731 242.138 121.115 242.66 120.647C243.188 120.173 243.796 119.83 244.482 119.618C245.168 119.4 245.889 119.291 246.646 119.291C247.147 119.291 247.678 119.351 248.239 119.471C248.805 119.585 249.333 119.798 249.823 120.108C250.319 120.418 250.724 120.862 251.04 121.439C251.356 122.011 251.514 122.754 251.514 123.669V132H249.129V130.285H249.031C248.873 130.601 248.636 130.911 248.32 131.216C248.005 131.521 247.599 131.774 247.103 131.975C246.608 132.177 246.014 132.278 245.323 132.278ZM245.854 130.317C246.529 130.317 247.106 130.184 247.585 129.917C248.07 129.65 248.437 129.302 248.688 128.872C248.944 128.436 249.072 127.971 249.072 127.475V125.858C248.985 125.945 248.816 126.027 248.565 126.103C248.32 126.174 248.04 126.236 247.724 126.291C247.408 126.34 247.101 126.386 246.801 126.43C246.502 126.468 246.251 126.5 246.05 126.528C245.576 126.588 245.143 126.688 244.751 126.83C244.365 126.971 244.054 127.176 243.82 127.442C243.591 127.704 243.477 128.052 243.477 128.488C243.477 129.092 243.7 129.55 244.147 129.86C244.593 130.165 245.162 130.317 245.854 130.317ZM265.55 132.245C264.537 132.245 263.633 131.986 262.838 131.469C262.049 130.946 261.428 130.203 260.976 129.239C260.53 128.27 260.306 127.108 260.306 125.752C260.306 124.396 260.532 123.236 260.984 122.272C261.442 121.309 262.068 120.571 262.863 120.059C263.658 119.547 264.559 119.291 265.566 119.291C266.345 119.291 266.971 119.422 267.445 119.683C267.924 119.939 268.294 120.239 268.556 120.582C268.822 120.925 269.029 121.227 269.176 121.488H269.323V115.273H271.766V132H269.381V130.048H269.176C269.029 130.315 268.817 130.62 268.539 130.963C268.267 131.306 267.891 131.605 267.412 131.861C266.933 132.117 266.312 132.245 265.55 132.245ZM266.089 130.162C266.791 130.162 267.385 129.977 267.87 129.607C268.36 129.231 268.73 128.711 268.98 128.047C269.236 127.383 269.364 126.609 269.364 125.727C269.364 124.856 269.239 124.094 268.989 123.44C268.738 122.787 268.371 122.278 267.886 121.913C267.401 121.548 266.802 121.366 266.089 121.366C265.354 121.366 264.741 121.556 264.251 121.938C263.761 122.319 263.391 122.839 263.141 123.498C262.896 124.156 262.773 124.9 262.773 125.727C262.773 126.566 262.898 127.32 263.149 127.99C263.399 128.659 263.769 129.19 264.259 129.582C264.755 129.969 265.365 130.162 266.089 130.162ZM278.902 132.278C278.107 132.278 277.388 132.131 276.746 131.837C276.103 131.537 275.594 131.104 275.218 130.538C274.848 129.972 274.663 129.277 274.663 128.455C274.663 127.747 274.799 127.165 275.071 126.707C275.344 126.25 275.711 125.888 276.174 125.621C276.637 125.354 277.154 125.153 277.726 125.017C278.298 124.881 278.88 124.777 279.474 124.706C280.225 124.619 280.835 124.548 281.303 124.494C281.772 124.434 282.112 124.339 282.324 124.208C282.537 124.077 282.643 123.865 282.643 123.571V123.514C282.643 122.801 282.441 122.248 282.038 121.856C281.641 121.464 281.047 121.268 280.258 121.268C279.436 121.268 278.788 121.45 278.314 121.815C277.846 122.174 277.522 122.575 277.342 123.016L275.047 122.493C275.319 121.731 275.717 121.115 276.239 120.647C276.768 120.173 277.375 119.83 278.061 119.618C278.747 119.4 279.468 119.291 280.225 119.291C280.726 119.291 281.257 119.351 281.818 119.471C282.384 119.585 282.912 119.798 283.402 120.108C283.898 120.418 284.304 120.862 284.619 121.439C284.935 122.011 285.093 122.754 285.093 123.669V132H282.708V130.285H282.61C282.452 130.601 282.215 130.911 281.9 131.216C281.584 131.521 281.178 131.774 280.683 131.975C280.187 132.177 279.594 132.278 278.902 132.278ZM279.433 130.317C280.108 130.317 280.685 130.184 281.164 129.917C281.649 129.65 282.017 129.302 282.267 128.872C282.523 128.436 282.651 127.971 282.651 127.475V125.858C282.564 125.945 282.395 126.027 282.145 126.103C281.9 126.174 281.619 126.236 281.303 126.291C280.987 126.34 280.68 126.386 280.38 126.43C280.081 126.468 279.83 126.5 279.629 126.528C279.155 126.588 278.722 126.688 278.33 126.83C277.944 126.971 277.633 127.176 277.399 127.442C277.17 127.704 277.056 128.052 277.056 128.488C277.056 129.092 277.279 129.55 277.726 129.86C278.172 130.165 278.741 130.317 279.433 130.317ZM290.788 124.551V132H288.346V119.455H290.69V121.496H290.845C291.134 120.832 291.586 120.299 292.201 119.896C292.822 119.493 293.603 119.291 294.545 119.291C295.4 119.291 296.149 119.471 296.791 119.83C297.434 120.184 297.932 120.712 298.286 121.415C298.64 122.117 298.817 122.986 298.817 124.02V132H296.375V124.314C296.375 123.405 296.138 122.694 295.664 122.183C295.19 121.665 294.54 121.407 293.712 121.407C293.146 121.407 292.642 121.529 292.201 121.774C291.765 122.019 291.42 122.379 291.164 122.852C290.913 123.321 290.788 123.887 290.788 124.551ZM319.695 120.557C319.537 120.062 319.325 119.618 319.058 119.226C318.797 118.828 318.484 118.491 318.119 118.213C317.754 117.93 317.337 117.715 316.869 117.568C316.406 117.421 315.897 117.347 315.342 117.347C314.4 117.347 313.55 117.59 312.794 118.074C312.037 118.559 311.438 119.269 310.997 120.206C310.561 121.137 310.343 122.278 310.343 123.628C310.343 124.984 310.564 126.13 311.005 127.067C311.446 128.003 312.05 128.714 312.818 129.199C313.586 129.683 314.46 129.925 315.44 129.925C316.349 129.925 317.141 129.74 317.817 129.37C318.497 129 319.023 128.477 319.393 127.802C319.769 127.121 319.956 126.321 319.956 125.401L320.61 125.523H315.824V123.44H322.399V125.343C322.399 126.748 322.099 127.968 321.5 129.002C320.907 130.032 320.084 130.827 319.034 131.387C317.988 131.948 316.79 132.229 315.44 132.229C313.926 132.229 312.597 131.88 311.454 131.183C310.316 130.486 309.428 129.498 308.791 128.218C308.154 126.933 307.836 125.409 307.836 123.645C307.836 122.31 308.021 121.113 308.391 120.051C308.761 118.989 309.281 118.088 309.951 117.347C310.626 116.601 311.419 116.032 312.328 115.64C313.243 115.243 314.242 115.044 315.325 115.044C316.229 115.044 317.071 115.177 317.849 115.444C318.633 115.711 319.33 116.089 319.94 116.58C320.555 117.07 321.065 117.652 321.468 118.327C321.87 118.997 322.143 119.74 322.284 120.557H319.695ZM330.813 132.253C329.577 132.253 328.513 131.989 327.62 131.461C326.732 130.927 326.046 130.179 325.562 129.215C325.082 128.246 324.843 127.11 324.843 125.809C324.843 124.524 325.082 123.391 325.562 122.411C326.046 121.431 326.721 120.666 327.587 120.116C328.458 119.566 329.477 119.291 330.642 119.291C331.35 119.291 332.036 119.408 332.7 119.642C333.364 119.877 333.961 120.244 334.489 120.745C335.017 121.246 335.433 121.897 335.738 122.697C336.043 123.492 336.196 124.459 336.196 125.597V126.462H326.223V124.633H333.803C333.803 123.99 333.672 123.421 333.411 122.926C333.149 122.425 332.782 122.03 332.308 121.741C331.84 121.453 331.29 121.309 330.658 121.309C329.972 121.309 329.373 121.477 328.861 121.815C328.355 122.147 327.963 122.583 327.685 123.122C327.413 123.655 327.277 124.235 327.277 124.862V126.291C327.277 127.129 327.424 127.843 327.718 128.431C328.017 129.019 328.434 129.468 328.967 129.778C329.501 130.083 330.124 130.236 330.838 130.236C331.301 130.236 331.723 130.17 332.104 130.04C332.485 129.904 332.814 129.702 333.092 129.435C333.37 129.169 333.582 128.839 333.729 128.447L336.041 128.864C335.855 129.544 335.523 130.141 335.044 130.652C334.57 131.159 333.974 131.554 333.255 131.837C332.542 132.114 331.728 132.253 330.813 132.253ZM338.905 119.455H341.347V132.817C341.347 133.655 341.195 134.363 340.89 134.94C340.591 135.518 340.144 135.956 339.551 136.255C338.963 136.555 338.236 136.705 337.37 136.705C337.283 136.705 337.201 136.705 337.125 136.705C337.043 136.705 336.959 136.702 336.872 136.696V134.597C336.948 134.597 337.016 134.597 337.076 134.597C337.13 134.597 337.193 134.597 337.264 134.597C337.841 134.597 338.257 134.442 338.513 134.132C338.775 133.827 338.905 133.383 338.905 132.8V119.455ZM340.114 117.519C339.689 117.519 339.325 117.377 339.02 117.094C338.72 116.806 338.57 116.462 338.57 116.065C338.57 115.662 338.72 115.319 339.02 115.036C339.325 114.747 339.689 114.603 340.114 114.603C340.539 114.603 340.901 114.747 341.2 115.036C341.505 115.319 341.658 115.662 341.658 116.065C341.658 116.462 341.505 116.806 341.2 117.094C340.901 117.377 340.539 117.519 340.114 117.519ZM348.284 132.278C347.489 132.278 346.77 132.131 346.128 131.837C345.485 131.537 344.976 131.104 344.6 130.538C344.23 129.972 344.045 129.277 344.045 128.455C344.045 127.747 344.181 127.165 344.453 126.707C344.725 126.25 345.093 125.888 345.556 125.621C346.019 125.354 346.536 125.153 347.108 125.017C347.679 124.881 348.262 124.777 348.856 124.706C349.607 124.619 350.217 124.548 350.685 124.494C351.153 124.434 351.494 124.339 351.706 124.208C351.918 124.077 352.025 123.865 352.025 123.571V123.514C352.025 122.801 351.823 122.248 351.42 121.856C351.023 121.464 350.429 121.268 349.64 121.268C348.817 121.268 348.169 121.45 347.696 121.815C347.227 122.174 346.903 122.575 346.724 123.016L344.429 122.493C344.701 121.731 345.098 121.115 345.621 120.647C346.149 120.173 346.756 119.83 347.443 119.618C348.129 119.4 348.85 119.291 349.607 119.291C350.108 119.291 350.639 119.351 351.2 119.471C351.766 119.585 352.294 119.798 352.784 120.108C353.28 120.418 353.685 120.862 354.001 121.439C354.317 122.011 354.475 122.754 354.475 123.669V132H352.09V130.285H351.992C351.834 130.601 351.597 130.911 351.281 131.216C350.966 131.521 350.56 131.774 350.064 131.975C349.569 132.177 348.975 132.278 348.284 132.278ZM348.815 130.317C349.49 130.317 350.067 130.184 350.546 129.917C351.031 129.65 351.398 129.302 351.649 128.872C351.905 128.436 352.033 127.971 352.033 127.475V125.858C351.946 125.945 351.777 126.027 351.526 126.103C351.281 126.174 351.001 126.236 350.685 126.291C350.369 126.34 350.062 126.386 349.762 126.43C349.463 126.468 349.212 126.5 349.011 126.528C348.537 126.588 348.104 126.688 347.712 126.83C347.325 126.971 347.015 127.176 346.781 127.442C346.552 127.704 346.438 128.052 346.438 128.488C346.438 129.092 346.661 129.55 347.108 129.86C347.554 130.165 348.123 130.317 348.815 130.317ZM360.17 115.273V132H357.728V115.273H360.17ZM367.106 132.278C366.311 132.278 365.592 132.131 364.95 131.837C364.307 131.537 363.798 131.104 363.422 130.538C363.052 129.972 362.867 129.277 362.867 128.455C362.867 127.747 363.003 127.165 363.275 126.707C363.548 126.25 363.915 125.888 364.378 125.621C364.841 125.354 365.358 125.153 365.93 125.017C366.502 124.881 367.084 124.777 367.678 124.706C368.429 124.619 369.039 124.548 369.507 124.494C369.976 124.434 370.316 124.339 370.528 124.208C370.741 124.077 370.847 123.865 370.847 123.571V123.514C370.847 122.801 370.645 122.248 370.242 121.856C369.845 121.464 369.251 121.268 368.462 121.268C367.64 121.268 366.992 121.45 366.518 121.815C366.05 122.174 365.726 122.575 365.546 123.016L363.251 122.493C363.523 121.731 363.921 121.115 364.443 120.647C364.972 120.173 365.579 119.83 366.265 119.618C366.951 119.4 367.672 119.291 368.429 119.291C368.93 119.291 369.461 119.351 370.022 119.471C370.588 119.585 371.116 119.798 371.606 120.108C372.102 120.418 372.508 120.862 372.823 121.439C373.139 122.011 373.297 122.754 373.297 123.669V132H370.912V130.285H370.814C370.656 130.601 370.419 130.911 370.104 131.216C369.788 131.521 369.382 131.774 368.887 131.975C368.391 132.177 367.798 132.278 367.106 132.278ZM367.637 130.317C368.312 130.317 368.889 130.184 369.369 129.917C369.853 129.65 370.221 129.302 370.471 128.872C370.727 128.436 370.855 127.971 370.855 127.475V125.858C370.768 125.945 370.599 126.027 370.349 126.103C370.104 126.174 369.823 126.236 369.507 126.291C369.192 126.34 368.884 126.386 368.584 126.43C368.285 126.468 368.034 126.5 367.833 126.528C367.359 126.588 366.926 126.688 366.534 126.83C366.148 126.971 365.837 127.176 365.603 127.442C365.375 127.704 365.26 128.052 365.26 128.488C365.26 129.092 365.483 129.55 365.93 129.86C366.376 130.165 366.945 130.317 367.637 130.317ZM388.066 120.557C387.908 120.062 387.696 119.618 387.429 119.226C387.168 118.828 386.855 118.491 386.49 118.213C386.125 117.93 385.709 117.715 385.24 117.568C384.777 117.421 384.268 117.347 383.713 117.347C382.771 117.347 381.921 117.59 381.165 118.074C380.408 118.559 379.809 119.269 379.368 120.206C378.932 121.137 378.714 122.278 378.714 123.628C378.714 124.984 378.935 126.13 379.376 127.067C379.817 128.003 380.421 128.714 381.189 129.199C381.957 129.683 382.831 129.925 383.811 129.925C384.72 129.925 385.512 129.74 386.188 129.37C386.868 129 387.394 128.477 387.764 127.802C388.14 127.121 388.328 126.321 388.328 125.401L388.981 125.523H384.195V123.44H390.77V125.343C390.77 126.748 390.47 127.968 389.871 129.002C389.278 130.032 388.456 130.827 387.405 131.387C386.359 131.948 385.161 132.229 383.811 132.229C382.297 132.229 380.969 131.88 379.825 131.183C378.687 130.486 377.8 129.498 377.162 128.218C376.525 126.933 376.207 125.409 376.207 123.645C376.207 122.31 376.392 121.113 376.762 120.051C377.133 118.989 377.653 118.088 378.322 117.347C378.997 116.601 379.79 116.032 380.699 115.64C381.614 115.243 382.613 115.044 383.697 115.044C384.6 115.044 385.442 115.177 386.22 115.444C387.004 115.711 387.701 116.089 388.311 116.58C388.927 117.07 389.436 117.652 389.839 118.327C390.242 118.997 390.514 119.74 390.655 120.557H388.066ZM397.428 132.278C396.633 132.278 395.915 132.131 395.272 131.837C394.63 131.537 394.12 131.104 393.745 130.538C393.374 129.972 393.189 129.277 393.189 128.455C393.189 127.747 393.325 127.165 393.598 126.707C393.87 126.25 394.238 125.888 394.7 125.621C395.163 125.354 395.68 125.153 396.252 125.017C396.824 124.881 397.407 124.777 398 124.706C398.752 124.619 399.361 124.548 399.83 124.494C400.298 124.434 400.638 124.339 400.851 124.208C401.063 124.077 401.169 123.865 401.169 123.571V123.514C401.169 122.801 400.968 122.248 400.565 121.856C400.167 121.464 399.574 121.268 398.784 121.268C397.962 121.268 397.314 121.45 396.84 121.815C396.372 122.174 396.048 122.575 395.868 123.016L393.573 122.493C393.845 121.731 394.243 121.115 394.766 120.647C395.294 120.173 395.901 119.83 396.587 119.618C397.273 119.4 397.995 119.291 398.752 119.291C399.252 119.291 399.783 119.351 400.344 119.471C400.91 119.585 401.439 119.798 401.929 120.108C402.424 120.418 402.83 120.862 403.146 121.439C403.461 122.011 403.619 122.754 403.619 123.669V132H401.234V130.285H401.136C400.979 130.601 400.742 130.911 400.426 131.216C400.11 131.521 399.704 131.774 399.209 131.975C398.713 132.177 398.12 132.278 397.428 132.278ZM397.959 130.317C398.634 130.317 399.212 130.184 399.691 129.917C400.175 129.65 400.543 129.302 400.793 128.872C401.049 128.436 401.177 127.971 401.177 127.475V125.858C401.09 125.945 400.921 126.027 400.671 126.103C400.426 126.174 400.145 126.236 399.83 126.291C399.514 126.34 399.206 126.386 398.907 126.43C398.607 126.468 398.357 126.5 398.155 126.528C397.682 126.588 397.249 126.688 396.857 126.83C396.47 126.971 396.16 127.176 395.926 127.442C395.697 127.704 395.582 128.052 395.582 128.488C395.582 129.092 395.806 129.55 396.252 129.86C396.699 130.165 397.268 130.317 397.959 130.317ZM412.132 136.966C411.136 136.966 410.278 136.835 409.559 136.574C408.846 136.313 408.263 135.967 407.811 135.537C407.359 135.106 407.022 134.635 406.799 134.124L408.898 133.258C409.045 133.497 409.241 133.751 409.486 134.017C409.736 134.29 410.074 134.521 410.499 134.712C410.929 134.902 411.481 134.998 412.157 134.998C413.082 134.998 413.847 134.772 414.452 134.32C415.056 133.873 415.358 133.16 415.358 132.18V129.713H415.203C415.056 129.98 414.844 130.277 414.566 130.603C414.294 130.93 413.918 131.213 413.439 131.453C412.96 131.692 412.336 131.812 411.569 131.812C410.578 131.812 409.685 131.581 408.89 131.118C408.1 130.65 407.474 129.961 407.011 129.051C406.554 128.137 406.325 127.012 406.325 125.678C406.325 124.344 406.551 123.201 407.003 122.248C407.46 121.295 408.086 120.565 408.881 120.059C409.676 119.547 410.578 119.291 411.585 119.291C412.364 119.291 412.992 119.422 413.472 119.683C413.951 119.939 414.324 120.239 414.591 120.582C414.863 120.925 415.072 121.227 415.219 121.488H415.399V119.455H417.792V132.278C417.792 133.356 417.542 134.241 417.041 134.932C416.54 135.624 415.862 136.136 415.007 136.468C414.158 136.8 413.199 136.966 412.132 136.966ZM412.108 129.787C412.81 129.787 413.404 129.623 413.888 129.297C414.378 128.964 414.748 128.491 414.999 127.875C415.255 127.255 415.383 126.511 415.383 125.646C415.383 124.802 415.258 124.058 415.007 123.416C414.757 122.773 414.389 122.272 413.904 121.913C413.42 121.548 412.821 121.366 412.108 121.366C411.373 121.366 410.76 121.556 410.27 121.938C409.78 122.313 409.41 122.825 409.159 123.473C408.914 124.121 408.792 124.845 408.792 125.646C408.792 126.468 408.917 127.189 409.167 127.81C409.418 128.431 409.788 128.915 410.278 129.264C410.774 129.612 411.383 129.787 412.108 129.787ZM424.718 132.278C423.923 132.278 423.205 132.131 422.562 131.837C421.92 131.537 421.411 131.104 421.035 130.538C420.665 129.972 420.479 129.277 420.479 128.455C420.479 127.747 420.616 127.165 420.888 126.707C421.16 126.25 421.528 125.888 421.99 125.621C422.453 125.354 422.971 125.153 423.542 125.017C424.114 124.881 424.697 124.777 425.29 124.706C426.042 124.619 426.651 124.548 427.12 124.494C427.588 124.434 427.928 124.339 428.141 124.208C428.353 124.077 428.459 123.865 428.459 123.571V123.514C428.459 122.801 428.258 122.248 427.855 121.856C427.457 121.464 426.864 121.268 426.074 121.268C425.252 121.268 424.604 121.45 424.13 121.815C423.662 122.174 423.338 122.575 423.158 123.016L420.863 122.493C421.136 121.731 421.533 121.115 422.056 120.647C422.584 120.173 423.191 119.83 423.877 119.618C424.563 119.4 425.285 119.291 426.042 119.291C426.542 119.291 427.073 119.351 427.634 119.471C428.201 119.585 428.729 119.798 429.219 120.108C429.714 120.418 430.12 120.862 430.436 121.439C430.752 122.011 430.909 122.754 430.909 123.669V132H428.525V130.285H428.426C428.269 130.601 428.032 130.911 427.716 131.216C427.4 131.521 426.994 131.774 426.499 131.975C426.003 132.177 425.41 132.278 424.718 132.278ZM425.249 130.317C425.924 130.317 426.502 130.184 426.981 129.917C427.465 129.65 427.833 129.302 428.083 128.872C428.339 128.436 428.467 127.971 428.467 127.475V125.858C428.38 125.945 428.211 126.027 427.961 126.103C427.716 126.174 427.435 126.236 427.12 126.291C426.804 126.34 426.496 126.386 426.197 126.43C425.897 126.468 425.647 126.5 425.445 126.528C424.972 126.588 424.539 126.688 424.147 126.83C423.76 126.971 423.45 127.176 423.216 127.442C422.987 127.704 422.873 128.052 422.873 128.488C422.873 129.092 423.096 129.55 423.542 129.86C423.989 130.165 424.558 130.317 425.249 130.317ZM436.604 115.273V132H434.162V115.273H436.604ZM457.493 120.557C457.335 120.062 457.123 119.618 456.856 119.226C456.595 118.828 456.281 118.491 455.917 118.213C455.552 117.93 455.135 117.715 454.667 117.568C454.204 117.421 453.695 117.347 453.14 117.347C452.198 117.347 451.348 117.59 450.591 118.074C449.834 118.559 449.236 119.269 448.794 120.206C448.359 121.137 448.141 122.278 448.141 123.628C448.141 124.984 448.362 126.13 448.803 127.067C449.244 128.003 449.848 128.714 450.616 129.199C451.384 129.683 452.258 129.925 453.238 129.925C454.147 129.925 454.939 129.74 455.614 129.37C456.295 129 456.821 128.477 457.191 127.802C457.566 127.121 457.754 126.321 457.754 125.401L458.408 125.523H453.622V123.44H460.196V125.343C460.196 126.748 459.897 127.968 459.298 129.002C458.705 130.032 457.882 130.827 456.831 131.387C455.786 131.948 454.588 132.229 453.238 132.229C451.724 132.229 450.395 131.88 449.252 131.183C448.114 130.486 447.226 129.498 446.589 128.218C445.952 126.933 445.634 125.409 445.634 123.645C445.634 122.31 445.819 121.113 446.189 120.051C446.559 118.989 447.079 118.088 447.749 117.347C448.424 116.601 449.216 116.032 450.126 115.64C451.041 115.243 452.04 115.044 453.123 115.044C454.027 115.044 454.868 115.177 455.647 115.444C456.431 115.711 457.128 116.089 457.738 116.58C458.353 117.07 458.862 117.652 459.265 118.327C459.668 118.997 459.941 119.74 460.082 120.557H457.493ZM463.99 132V119.455H466.432V132H463.99ZM465.224 117.519C464.799 117.519 464.434 117.377 464.129 117.094C463.83 116.806 463.68 116.462 463.68 116.065C463.68 115.662 463.83 115.319 464.129 115.036C464.434 114.747 464.799 114.603 465.224 114.603C465.648 114.603 466.01 114.747 466.31 115.036C466.615 115.319 466.767 115.662 466.767 116.065C466.767 116.462 466.615 116.806 466.31 117.094C466.01 117.377 465.648 117.519 465.224 117.519ZM472.16 124.551V132H469.718V119.455H472.062V121.496H472.217C472.506 120.832 472.958 120.299 473.573 119.896C474.194 119.493 474.975 119.291 475.917 119.291C476.772 119.291 477.521 119.471 478.163 119.83C478.806 120.184 479.304 120.712 479.658 121.415C480.012 122.117 480.189 122.986 480.189 124.02V132H477.747V124.314C477.747 123.405 477.51 122.694 477.036 122.183C476.562 121.665 475.912 121.407 475.084 121.407C474.518 121.407 474.014 121.529 473.573 121.774C473.137 122.019 472.792 122.379 472.536 122.852C472.285 123.321 472.16 123.887 472.16 124.551ZM483.464 119.455H485.906V132.817C485.906 133.655 485.754 134.363 485.449 134.94C485.149 135.518 484.703 135.956 484.109 136.255C483.521 136.555 482.794 136.705 481.928 136.705C481.841 136.705 481.76 136.705 481.683 136.705C481.602 136.705 481.517 136.702 481.43 136.696V134.597C481.506 134.597 481.575 134.597 481.634 134.597C481.689 134.597 481.751 134.597 481.822 134.597C482.399 134.597 482.816 134.442 483.072 134.132C483.333 133.827 483.464 133.383 483.464 132.8V119.455ZM484.673 117.519C484.248 117.519 483.883 117.377 483.578 117.094C483.279 116.806 483.129 116.462 483.129 116.065C483.129 115.662 483.279 115.319 483.578 115.036C483.883 114.747 484.248 114.603 484.673 114.603C485.097 114.603 485.46 114.747 485.759 115.036C486.064 115.319 486.216 115.662 486.216 116.065C486.216 116.462 486.064 116.806 485.759 117.094C485.46 117.377 485.097 117.519 484.673 117.519ZM492.842 132.278C492.047 132.278 491.329 132.131 490.686 131.837C490.044 131.537 489.535 131.104 489.159 130.538C488.789 129.972 488.603 129.277 488.603 128.455C488.603 127.747 488.74 127.165 489.012 126.707C489.284 126.25 489.652 125.888 490.114 125.621C490.577 125.354 491.095 125.153 491.666 125.017C492.238 124.881 492.821 124.777 493.414 124.706C494.166 124.619 494.775 124.548 495.244 124.494C495.712 124.434 496.052 124.339 496.265 124.208C496.477 124.077 496.583 123.865 496.583 123.571V123.514C496.583 122.801 496.382 122.248 495.979 121.856C495.581 121.464 494.988 121.268 494.198 121.268C493.376 121.268 492.728 121.45 492.254 121.815C491.786 122.174 491.462 122.575 491.282 123.016L488.987 122.493C489.26 121.731 489.657 121.115 490.18 120.647C490.708 120.173 491.315 119.83 492.001 119.618C492.687 119.4 493.409 119.291 494.166 119.291C494.667 119.291 495.197 119.351 495.758 119.471C496.325 119.585 496.853 119.798 497.343 120.108C497.838 120.418 498.244 120.862 498.56 121.439C498.876 122.011 499.033 122.754 499.033 123.669V132H496.649V130.285H496.551C496.393 130.601 496.156 130.911 495.84 131.216C495.524 131.521 495.118 131.774 494.623 131.975C494.127 132.177 493.534 132.278 492.842 132.278ZM493.373 130.317C494.049 130.317 494.626 130.184 495.105 129.917C495.589 129.65 495.957 129.302 496.207 128.872C496.463 128.436 496.591 127.971 496.591 127.475V125.858C496.504 125.945 496.335 126.027 496.085 126.103C495.84 126.174 495.56 126.236 495.244 126.291C494.928 126.34 494.62 126.386 494.321 126.43C494.021 126.468 493.771 126.5 493.569 126.528C493.096 126.588 492.663 126.688 492.271 126.83C491.884 126.971 491.574 127.176 491.34 127.442C491.111 127.704 490.997 128.052 490.997 128.488C490.997 129.092 491.22 129.55 491.666 129.86C492.113 130.165 492.682 130.317 493.373 130.317ZM504.728 115.273V132H502.286V115.273H504.728ZM511.191 129.713L511.068 130.603C510.987 131.257 510.848 131.937 510.652 132.645C510.461 133.359 510.263 134.02 510.056 134.63C509.854 135.24 509.688 135.724 509.557 136.084H507.826C507.897 135.746 507.995 135.289 508.12 134.712C508.245 134.14 508.368 133.5 508.487 132.792C508.607 132.084 508.697 131.363 508.757 130.628L508.839 129.713H511.191ZM520.653 115.273H523.716L529.041 128.276H529.237L534.563 115.273H537.625V132H535.224V119.896H535.069L530.136 131.975H528.143L523.21 119.887H523.054V132H520.653V115.273ZM546.506 132.253C545.27 132.253 544.205 131.989 543.312 131.461C542.425 130.927 541.739 130.179 541.254 129.215C540.775 128.246 540.535 127.11 540.535 125.809C540.535 124.524 540.775 123.391 541.254 122.411C541.739 121.431 542.414 120.666 543.279 120.116C544.151 119.566 545.169 119.291 546.334 119.291C547.042 119.291 547.728 119.408 548.392 119.642C549.057 119.877 549.653 120.244 550.181 120.745C550.709 121.246 551.126 121.897 551.431 122.697C551.736 123.492 551.888 124.459 551.888 125.597V126.462H541.915V124.633H549.495C549.495 123.99 549.364 123.421 549.103 122.926C548.842 122.425 548.474 122.03 548 121.741C547.532 121.453 546.982 121.309 546.35 121.309C545.664 121.309 545.065 121.477 544.554 121.815C544.047 122.147 543.655 122.583 543.377 123.122C543.105 123.655 542.969 124.235 542.969 124.862V126.291C542.969 127.129 543.116 127.843 543.41 128.431C543.71 129.019 544.126 129.468 544.66 129.778C545.193 130.083 545.817 130.236 546.53 130.236C546.993 130.236 547.415 130.17 547.796 130.04C548.177 129.904 548.507 129.702 548.784 129.435C549.062 129.169 549.275 128.839 549.422 128.447L551.733 128.864C551.548 129.544 551.216 130.141 550.737 130.652C550.263 131.159 549.667 131.554 548.948 131.837C548.234 132.114 547.42 132.253 546.506 132.253ZM557.04 124.551V132H554.598V119.455H556.942V121.496H557.097C557.386 120.832 557.838 120.299 558.453 119.896C559.074 119.493 559.855 119.291 560.797 119.291C561.652 119.291 562.401 119.471 563.043 119.83C563.686 120.184 564.184 120.712 564.538 121.415C564.892 122.117 565.069 122.986 565.069 124.02V132H562.627V124.314C562.627 123.405 562.39 122.694 561.916 122.183C561.442 121.665 560.792 121.407 559.964 121.407C559.398 121.407 558.894 121.529 558.453 121.774C558.017 122.019 557.671 122.379 557.416 122.852C557.165 123.321 557.04 123.887 557.04 124.551ZM573.604 136.966C572.607 136.966 571.75 136.835 571.031 136.574C570.318 136.313 569.735 135.967 569.283 135.537C568.831 135.106 568.494 134.635 568.27 134.124L570.369 133.258C570.516 133.497 570.712 133.751 570.957 134.017C571.208 134.29 571.546 134.521 571.97 134.712C572.4 134.902 572.953 134.998 573.628 134.998C574.554 134.998 575.319 134.772 575.923 134.32C576.528 133.873 576.83 133.16 576.83 132.18V129.713H576.675C576.528 129.98 576.315 130.277 576.038 130.603C575.765 130.93 575.39 131.213 574.911 131.453C574.431 131.692 573.808 131.812 573.04 131.812C572.049 131.812 571.156 131.581 570.361 131.118C569.572 130.65 568.946 129.961 568.483 129.051C568.025 128.137 567.797 127.012 567.797 125.678C567.797 124.344 568.023 123.201 568.475 122.248C568.932 121.295 569.558 120.565 570.353 120.059C571.148 119.547 572.049 119.291 573.057 119.291C573.835 119.291 574.464 119.422 574.943 119.683C575.422 119.939 575.795 120.239 576.062 120.582C576.334 120.925 576.544 121.227 576.691 121.488H576.871V119.455H579.264V132.278C579.264 133.356 579.013 134.241 578.513 134.932C578.012 135.624 577.334 136.136 576.479 136.468C575.629 136.8 574.671 136.966 573.604 136.966ZM573.579 129.787C574.282 129.787 574.875 129.623 575.36 129.297C575.85 128.964 576.22 128.491 576.471 127.875C576.727 127.255 576.854 126.511 576.854 125.646C576.854 124.802 576.729 124.058 576.479 123.416C576.228 122.773 575.861 122.272 575.376 121.913C574.892 121.548 574.293 121.366 573.579 121.366C572.844 121.366 572.232 121.556 571.742 121.938C571.252 122.313 570.881 122.825 570.631 123.473C570.386 124.121 570.263 124.845 570.263 125.646C570.263 126.468 570.388 127.189 570.639 127.81C570.889 128.431 571.26 128.915 571.75 129.264C572.245 129.612 572.855 129.787 573.579 129.787ZM586.19 132.278C585.395 132.278 584.676 132.131 584.034 131.837C583.391 131.537 582.882 131.104 582.506 130.538C582.136 129.972 581.951 129.277 581.951 128.455C581.951 127.747 582.087 127.165 582.359 126.707C582.632 126.25 582.999 125.888 583.462 125.621C583.925 125.354 584.442 125.153 585.014 125.017C585.586 124.881 586.168 124.777 586.762 124.706C587.513 124.619 588.123 124.548 588.591 124.494C589.06 124.434 589.4 124.339 589.612 124.208C589.825 124.077 589.931 123.865 589.931 123.571V123.514C589.931 122.801 589.729 122.248 589.326 121.856C588.929 121.464 588.335 121.268 587.546 121.268C586.724 121.268 586.076 121.45 585.602 121.815C585.134 122.174 584.81 122.575 584.63 123.016L582.335 122.493C582.607 121.731 583.005 121.115 583.527 120.647C584.056 120.173 584.663 119.83 585.349 119.618C586.035 119.4 586.756 119.291 587.513 119.291C588.014 119.291 588.545 119.351 589.106 119.471C589.672 119.585 590.2 119.798 590.69 120.108C591.186 120.418 591.592 120.862 591.907 121.439C592.223 122.011 592.381 122.754 592.381 123.669V132H589.996V130.285H589.898C589.74 130.601 589.503 130.911 589.188 131.216C588.872 131.521 588.466 131.774 587.971 131.975C587.475 132.177 586.882 132.278 586.19 132.278ZM586.721 130.317C587.396 130.317 587.973 130.184 588.453 129.917C588.937 129.65 589.305 129.302 589.555 128.872C589.811 128.436 589.939 127.971 589.939 127.475V125.858C589.852 125.945 589.683 126.027 589.433 126.103C589.188 126.174 588.907 126.236 588.591 126.291C588.276 126.34 587.968 126.386 587.668 126.43C587.369 126.468 587.118 126.5 586.917 126.528C586.443 126.588 586.01 126.688 585.618 126.83C585.232 126.971 584.921 127.176 584.687 127.442C584.459 127.704 584.344 128.052 584.344 128.488C584.344 129.092 584.567 129.55 585.014 129.86C585.46 130.165 586.029 130.317 586.721 130.317ZM595.634 136.705V119.455H598.019V121.488H598.223C598.365 121.227 598.569 120.925 598.836 120.582C599.102 120.239 599.473 119.939 599.946 119.683C600.42 119.422 601.046 119.291 601.825 119.291C602.838 119.291 603.742 119.547 604.537 120.059C605.332 120.571 605.955 121.309 606.407 122.272C606.864 123.236 607.093 124.396 607.093 125.752C607.093 127.108 606.867 128.27 606.415 129.239C605.963 130.203 605.342 130.946 604.553 131.469C603.763 131.986 602.862 132.245 601.849 132.245C601.087 132.245 600.464 132.117 599.979 131.861C599.5 131.605 599.124 131.306 598.852 130.963C598.58 130.62 598.37 130.315 598.223 130.048H598.076V136.705H595.634ZM598.027 125.727C598.027 126.609 598.155 127.383 598.411 128.047C598.667 128.711 599.037 129.231 599.522 129.607C600.006 129.977 600.6 130.162 601.302 130.162C602.032 130.162 602.642 129.969 603.132 129.582C603.622 129.19 603.992 128.659 604.243 127.99C604.498 127.32 604.626 126.566 604.626 125.727C604.626 124.9 604.501 124.156 604.251 123.498C604.006 122.839 603.635 122.319 603.14 121.938C602.65 121.556 602.037 121.366 601.302 121.366C600.594 121.366 599.995 121.548 599.505 121.913C599.021 122.278 598.653 122.787 598.403 123.44C598.152 124.094 598.027 124.856 598.027 125.727ZM613.48 132.278C612.685 132.278 611.966 132.131 611.324 131.837C610.681 131.537 610.172 131.104 609.797 130.538C609.426 129.972 609.241 129.277 609.241 128.455C609.241 127.747 609.377 127.165 609.65 126.707C609.922 126.25 610.289 125.888 610.752 125.621C611.215 125.354 611.732 125.153 612.304 125.017C612.876 124.881 613.458 124.777 614.052 124.706C614.803 124.619 615.413 124.548 615.881 124.494C616.35 124.434 616.69 124.339 616.902 124.208C617.115 124.077 617.221 123.865 617.221 123.571V123.514C617.221 122.801 617.019 122.248 616.616 121.856C616.219 121.464 615.625 121.268 614.836 121.268C614.014 121.268 613.366 121.45 612.892 121.815C612.424 122.174 612.1 122.575 611.92 123.016L609.625 122.493C609.897 121.731 610.295 121.115 610.817 120.647C611.346 120.173 611.953 119.83 612.639 119.618C613.325 119.4 614.046 119.291 614.803 119.291C615.304 119.291 615.835 119.351 616.396 119.471C616.962 119.585 617.49 119.798 617.98 120.108C618.476 120.418 618.882 120.862 619.197 121.439C619.513 122.011 619.671 122.754 619.671 123.669V132H617.286V130.285H617.188C617.03 130.601 616.793 130.911 616.478 131.216C616.162 131.521 615.756 131.774 615.261 131.975C614.765 132.177 614.172 132.278 613.48 132.278ZM614.011 130.317C614.686 130.317 615.263 130.184 615.743 129.917C616.227 129.65 616.595 129.302 616.845 128.872C617.101 128.436 617.229 127.971 617.229 127.475V125.858C617.142 125.945 616.973 126.027 616.723 126.103C616.478 126.174 616.197 126.236 615.881 126.291C615.566 126.34 615.258 126.386 614.958 126.43C614.659 126.468 614.408 126.5 614.207 126.528C613.733 126.588 613.3 126.688 612.908 126.83C612.522 126.971 612.211 127.176 611.977 127.442C611.749 127.704 611.634 128.052 611.634 128.488C611.634 129.092 611.857 129.55 612.304 129.86C612.75 130.165 613.319 130.317 614.011 130.317ZM629.207 132V115.273H631.731V122.542H640.07V115.273H642.602V132H640.07V124.706H631.731V132H629.207ZM649.732 132.278C648.937 132.278 648.218 132.131 647.576 131.837C646.933 131.537 646.424 131.104 646.048 130.538C645.678 129.972 645.493 129.277 645.493 128.455C645.493 127.747 645.629 127.165 645.901 126.707C646.174 126.25 646.541 125.888 647.004 125.621C647.467 125.354 647.984 125.153 648.556 125.017C649.128 124.881 649.71 124.777 650.304 124.706C651.055 124.619 651.665 124.548 652.133 124.494C652.602 124.434 652.942 124.339 653.154 124.208C653.367 124.077 653.473 123.865 653.473 123.571V123.514C653.473 122.801 653.271 122.248 652.868 121.856C652.471 121.464 651.877 121.268 651.088 121.268C650.266 121.268 649.618 121.45 649.144 121.815C648.676 122.174 648.352 122.575 648.172 123.016L645.877 122.493C646.149 121.731 646.547 121.115 647.069 120.647C647.598 120.173 648.205 119.83 648.891 119.618C649.577 119.4 650.298 119.291 651.055 119.291C651.556 119.291 652.087 119.351 652.648 119.471C653.214 119.585 653.742 119.798 654.232 120.108C654.728 120.418 655.134 120.862 655.449 121.439C655.765 122.011 655.923 122.754 655.923 123.669V132H653.538V130.285H653.44C653.282 130.601 653.045 130.911 652.73 131.216C652.414 131.521 652.008 131.774 651.513 131.975C651.017 132.177 650.424 132.278 649.732 132.278ZM650.263 130.317C650.938 130.317 651.515 130.184 651.994 129.917C652.479 129.65 652.847 129.302 653.097 128.872C653.353 128.436 653.481 127.971 653.481 127.475V125.858C653.394 125.945 653.225 126.027 652.975 126.103C652.73 126.174 652.449 126.236 652.133 126.291C651.818 126.34 651.51 126.386 651.21 126.43C650.911 126.468 650.66 126.5 650.459 126.528C649.985 126.588 649.552 126.688 649.16 126.83C648.774 126.971 648.463 127.176 648.229 127.442C648.001 127.704 647.886 128.052 647.886 128.488C647.886 129.092 648.109 129.55 648.556 129.86C649.002 130.165 649.571 130.317 650.263 130.317ZM659.176 132V119.455H661.536V121.447H661.667C661.896 120.772 662.299 120.241 662.876 119.855C663.458 119.463 664.117 119.267 664.852 119.267C665.005 119.267 665.185 119.272 665.391 119.283C665.604 119.294 665.77 119.308 665.89 119.324V121.66C665.792 121.633 665.617 121.603 665.367 121.57C665.116 121.532 664.866 121.513 664.616 121.513C664.038 121.513 663.524 121.635 663.072 121.88C662.625 122.12 662.271 122.455 662.01 122.885C661.749 123.31 661.618 123.794 661.618 124.339V132H659.176ZM675.95 126.797V119.455H678.4V132H675.999V129.827H675.868C675.58 130.497 675.117 131.055 674.48 131.502C673.848 131.943 673.061 132.163 672.119 132.163C671.314 132.163 670.6 131.986 669.98 131.632C669.364 131.273 668.88 130.742 668.526 130.04C668.177 129.337 668.003 128.469 668.003 127.434V119.455H670.445V127.14C670.445 127.995 670.682 128.676 671.156 129.182C671.629 129.689 672.245 129.942 673.002 129.942C673.459 129.942 673.914 129.827 674.366 129.599C674.823 129.37 675.201 129.024 675.501 128.561C675.806 128.099 675.956 127.511 675.95 126.797ZM691.083 122.517L688.869 122.909C688.777 122.626 688.63 122.357 688.428 122.101C688.232 121.845 687.965 121.635 687.628 121.472C687.29 121.309 686.868 121.227 686.362 121.227C685.67 121.227 685.093 121.382 684.63 121.692C684.167 121.997 683.936 122.392 683.936 122.877C683.936 123.296 684.091 123.634 684.402 123.89C684.712 124.145 685.213 124.355 685.904 124.518L687.897 124.976C689.052 125.243 689.912 125.654 690.478 126.209C691.045 126.765 691.328 127.486 691.328 128.374C691.328 129.125 691.11 129.795 690.674 130.383C690.244 130.965 689.642 131.423 688.869 131.755C688.101 132.087 687.211 132.253 686.198 132.253C684.794 132.253 683.647 131.954 682.76 131.355C681.872 130.75 681.328 129.893 681.126 128.782L683.487 128.423C683.634 129.038 683.936 129.503 684.393 129.819C684.851 130.13 685.447 130.285 686.182 130.285C686.983 130.285 687.622 130.119 688.101 129.787C688.581 129.449 688.82 129.038 688.82 128.553C688.82 128.161 688.673 127.832 688.379 127.565C688.091 127.298 687.647 127.097 687.048 126.961L684.924 126.495C683.754 126.228 682.888 125.804 682.327 125.221C681.772 124.638 681.494 123.9 681.494 123.007C681.494 122.267 681.701 121.619 682.115 121.064C682.528 120.508 683.1 120.075 683.83 119.765C684.559 119.449 685.395 119.291 686.337 119.291C687.693 119.291 688.76 119.585 689.539 120.173C690.318 120.756 690.832 121.537 691.083 122.517ZM700.296 115.273H703.359L708.684 128.276H708.88L714.205 115.273H717.268V132H714.867V119.896H714.712L709.778 131.975H707.785L702.852 119.887H702.697V132H700.296V115.273ZM726.148 132.253C724.912 132.253 723.848 131.989 722.955 131.461C722.067 130.927 721.381 130.179 720.896 129.215C720.417 128.246 720.178 127.11 720.178 125.809C720.178 124.524 720.417 123.391 720.896 122.411C721.381 121.431 722.056 120.666 722.922 120.116C723.793 119.566 724.811 119.291 725.977 119.291C726.685 119.291 727.371 119.408 728.035 119.642C728.699 119.877 729.296 120.244 729.824 120.745C730.352 121.246 730.768 121.897 731.073 122.697C731.378 123.492 731.531 124.459 731.531 125.597V126.462H721.558V124.633H729.138C729.138 123.99 729.007 123.421 728.746 122.926C728.484 122.425 728.117 122.03 727.643 121.741C727.175 121.453 726.625 121.309 725.993 121.309C725.307 121.309 724.708 121.477 724.196 121.815C723.69 122.147 723.298 122.583 723.02 123.122C722.748 123.655 722.612 124.235 722.612 124.862V126.291C722.612 127.129 722.759 127.843 723.053 128.431C723.352 129.019 723.769 129.468 724.302 129.778C724.836 130.083 725.459 130.236 726.173 130.236C726.636 130.236 727.058 130.17 727.439 130.04C727.82 129.904 728.149 129.702 728.427 129.435C728.705 129.169 728.917 128.839 729.064 128.447L731.376 128.864C731.19 129.544 730.858 130.141 730.379 130.652C729.905 131.159 729.309 131.554 728.59 131.837C727.877 132.114 727.063 132.253 726.148 132.253ZM736.682 124.551V132H734.24V119.455H736.584V121.496H736.74C737.028 120.832 737.48 120.299 738.095 119.896C738.716 119.493 739.498 119.291 740.44 119.291C741.294 119.291 742.043 119.471 742.686 119.83C743.328 120.184 743.826 120.712 744.18 121.415C744.534 122.117 744.711 122.986 744.711 124.02V132H742.269V124.314C742.269 123.405 742.032 122.694 741.559 122.183C741.085 121.665 740.434 121.407 739.606 121.407C739.04 121.407 738.536 121.529 738.095 121.774C737.66 122.019 737.314 122.379 737.058 122.852C736.808 123.321 736.682 123.887 736.682 124.551ZM747.986 119.455H750.429V132.817C750.429 133.655 750.276 134.363 749.971 134.94C749.672 135.518 749.225 135.956 748.632 136.255C748.044 136.555 747.317 136.705 746.451 136.705C746.364 136.705 746.282 136.705 746.206 136.705C746.124 136.705 746.04 136.702 745.953 136.696V134.597C746.029 134.597 746.097 134.597 746.157 134.597C746.211 134.597 746.274 134.597 746.345 134.597C746.922 134.597 747.338 134.442 747.594 134.132C747.856 133.827 747.986 133.383 747.986 132.8V119.455ZM749.195 117.519C748.771 117.519 748.406 117.377 748.101 117.094C747.801 116.806 747.652 116.462 747.652 116.065C747.652 115.662 747.801 115.319 748.101 115.036C748.406 114.747 748.771 114.603 749.195 114.603C749.62 114.603 749.982 114.747 750.282 115.036C750.586 115.319 750.739 115.662 750.739 116.065C750.739 116.462 750.586 116.806 750.282 117.094C749.982 117.377 749.62 117.519 749.195 117.519ZM757.365 132.278C756.57 132.278 755.851 132.131 755.209 131.837C754.566 131.537 754.057 131.104 753.681 130.538C753.311 129.972 753.126 129.277 753.126 128.455C753.126 127.747 753.262 127.165 753.534 126.707C753.807 126.25 754.174 125.888 754.637 125.621C755.1 125.354 755.617 125.153 756.189 125.017C756.76 124.881 757.343 124.777 757.937 124.706C758.688 124.619 759.298 124.548 759.766 124.494C760.234 124.434 760.575 124.339 760.787 124.208C760.999 124.077 761.106 123.865 761.106 123.571V123.514C761.106 122.801 760.904 122.248 760.501 121.856C760.104 121.464 759.51 121.268 758.721 121.268C757.898 121.268 757.251 121.45 756.777 121.815C756.309 122.174 755.985 122.575 755.805 123.016L753.51 122.493C753.782 121.731 754.18 121.115 754.702 120.647C755.23 120.173 755.838 119.83 756.524 119.618C757.21 119.4 757.931 119.291 758.688 119.291C759.189 119.291 759.72 119.351 760.281 119.471C760.847 119.585 761.375 119.798 761.865 120.108C762.361 120.418 762.766 120.862 763.082 121.439C763.398 122.011 763.556 122.754 763.556 123.669V132H761.171V130.285H761.073C760.915 130.601 760.678 130.911 760.362 131.216C760.047 131.521 759.641 131.774 759.145 131.975C758.65 132.177 758.056 132.278 757.365 132.278ZM757.896 130.317C758.571 130.317 759.148 130.184 759.627 129.917C760.112 129.65 760.479 129.302 760.73 128.872C760.986 128.436 761.114 127.971 761.114 127.475V125.858C761.027 125.945 760.858 126.027 760.607 126.103C760.362 126.174 760.082 126.236 759.766 126.291C759.45 126.34 759.143 126.386 758.843 126.43C758.544 126.468 758.293 126.5 758.092 126.528C757.618 126.588 757.185 126.688 756.793 126.83C756.407 126.971 756.096 127.176 755.862 127.442C755.633 127.704 755.519 128.052 755.519 128.488C755.519 129.092 755.742 129.55 756.189 129.86C756.635 130.165 757.204 130.317 757.896 130.317ZM769.251 115.273V132H766.809V115.273H769.251ZM776.187 132.278C775.392 132.278 774.673 132.131 774.031 131.837C773.388 131.537 772.879 131.104 772.504 130.538C772.133 129.972 771.948 129.277 771.948 128.455C771.948 127.747 772.084 127.165 772.357 126.707C772.629 126.25 772.996 125.888 773.459 125.621C773.922 125.354 774.439 125.153 775.011 125.017C775.583 124.881 776.165 124.777 776.759 124.706C777.51 124.619 778.12 124.548 778.588 124.494C779.057 124.434 779.397 124.339 779.609 124.208C779.822 124.077 779.928 123.865 779.928 123.571V123.514C779.928 122.801 779.726 122.248 779.324 121.856C778.926 121.464 778.333 121.268 777.543 121.268C776.721 121.268 776.073 121.45 775.599 121.815C775.131 122.174 774.807 122.575 774.627 123.016L772.332 122.493C772.604 121.731 773.002 121.115 773.525 120.647C774.053 120.173 774.66 119.83 775.346 119.618C776.032 119.4 776.753 119.291 777.51 119.291C778.011 119.291 778.542 119.351 779.103 119.471C779.669 119.585 780.197 119.798 780.688 120.108C781.183 120.418 781.589 120.862 781.904 121.439C782.22 122.011 782.378 122.754 782.378 123.669V132H779.993V130.285H779.895C779.737 130.601 779.5 130.911 779.185 131.216C778.869 131.521 778.463 131.774 777.968 131.975C777.472 132.177 776.879 132.278 776.187 132.278ZM776.718 130.317C777.393 130.317 777.97 130.184 778.45 129.917C778.934 129.65 779.302 129.302 779.552 128.872C779.808 128.436 779.936 127.971 779.936 127.475V125.858C779.849 125.945 779.68 126.027 779.43 126.103C779.185 126.174 778.904 126.236 778.588 126.291C778.273 126.34 777.965 126.386 777.665 126.43C777.366 126.468 777.116 126.5 776.914 126.528C776.44 126.588 776.007 126.688 775.615 126.83C775.229 126.971 774.918 127.176 774.684 127.442C774.456 127.704 774.341 128.052 774.341 128.488C774.341 129.092 774.565 129.55 775.011 129.86C775.458 130.165 776.027 130.317 776.718 130.317ZM788.073 124.551V132H785.631V119.455H787.975V121.496H788.13C788.419 120.832 788.871 120.299 789.486 119.896C790.107 119.493 790.888 119.291 791.83 119.291C792.685 119.291 793.434 119.471 794.076 119.83C794.719 120.184 795.217 120.712 795.571 121.415C795.925 122.117 796.102 122.986 796.102 124.02V132H793.66V124.314C793.66 123.405 793.423 122.694 792.949 122.183C792.475 121.665 791.825 121.407 790.997 121.407C790.431 121.407 789.927 121.529 789.486 121.774C789.05 122.019 788.705 122.379 788.449 122.852C788.198 123.321 788.073 123.887 788.073 124.551ZM799.377 132V119.455H801.819V132H799.377ZM800.61 117.519C800.186 117.519 799.821 117.377 799.516 117.094C799.216 116.806 799.067 116.462 799.067 116.065C799.067 115.662 799.216 115.319 799.516 115.036C799.821 114.747 800.186 114.603 800.61 114.603C801.035 114.603 801.397 114.747 801.697 115.036C802.002 115.319 802.154 115.662 802.154 116.065C802.154 116.462 802.002 116.806 801.697 117.094C801.397 117.377 801.035 117.519 800.61 117.519ZM816.803 132H811.388V115.273H816.974C818.613 115.273 820.021 115.608 821.197 116.277C822.373 116.942 823.274 117.897 823.9 119.144C824.532 120.386 824.848 121.875 824.848 123.612C824.848 125.354 824.529 126.852 823.892 128.104C823.261 129.356 822.346 130.32 821.148 130.995C819.95 131.665 818.502 132 816.803 132ZM813.911 129.795H816.664C817.938 129.795 818.997 129.555 819.841 129.076C820.685 128.591 821.317 127.892 821.736 126.977C822.155 126.057 822.365 124.935 822.365 123.612C822.365 122.3 822.155 121.186 821.736 120.271C821.322 119.357 820.704 118.662 819.882 118.189C819.06 117.715 818.039 117.478 816.819 117.478H813.911V129.795ZM827.79 132V119.455H830.232V132H827.79ZM829.023 117.519C828.599 117.519 828.234 117.377 827.929 117.094C827.629 116.806 827.48 116.462 827.48 116.065C827.48 115.662 827.629 115.319 827.929 115.036C828.234 114.747 828.599 114.603 829.023 114.603C829.448 114.603 829.81 114.747 830.11 115.036C830.415 115.319 830.567 115.662 830.567 116.065C830.567 116.462 830.415 116.806 830.11 117.094C829.81 117.377 829.448 117.519 829.023 117.519ZM837.169 132.278C836.374 132.278 835.655 132.131 835.012 131.837C834.37 131.537 833.861 131.104 833.485 130.538C833.115 129.972 832.93 129.277 832.93 128.455C832.93 127.747 833.066 127.165 833.338 126.707C833.61 126.25 833.978 125.888 834.441 125.621C834.903 125.354 835.421 125.153 835.992 125.017C836.564 124.881 837.147 124.777 837.74 124.706C838.492 124.619 839.102 124.548 839.57 124.494C840.038 124.434 840.378 124.339 840.591 124.208C840.803 124.077 840.909 123.865 840.909 123.571V123.514C840.909 122.801 840.708 122.248 840.305 121.856C839.907 121.464 839.314 121.268 838.524 121.268C837.702 121.268 837.054 121.45 836.581 121.815C836.112 122.174 835.788 122.575 835.609 123.016L833.313 122.493C833.586 121.731 833.983 121.115 834.506 120.647C835.034 120.173 835.641 119.83 836.327 119.618C837.013 119.4 837.735 119.291 838.492 119.291C838.993 119.291 839.524 119.351 840.084 119.471C840.651 119.585 841.179 119.798 841.669 120.108C842.164 120.418 842.57 120.862 842.886 121.439C843.202 122.011 843.36 122.754 843.36 123.669V132H840.975V130.285H840.877C840.719 130.601 840.482 130.911 840.166 131.216C839.85 131.521 839.445 131.774 838.949 131.975C838.454 132.177 837.86 132.278 837.169 132.278ZM837.699 130.317C838.375 130.317 838.952 130.184 839.431 129.917C839.916 129.65 840.283 129.302 840.534 128.872C840.79 128.436 840.918 127.971 840.918 127.475V125.858C840.83 125.945 840.662 126.027 840.411 126.103C840.166 126.174 839.886 126.236 839.57 126.291C839.254 126.34 838.946 126.386 838.647 126.43C838.347 126.468 838.097 126.5 837.896 126.528C837.422 126.588 836.989 126.688 836.597 126.83C836.21 126.971 835.9 127.176 835.666 127.442C835.437 127.704 835.323 128.052 835.323 128.488C835.323 129.092 835.546 129.55 835.992 129.86C836.439 130.165 837.008 130.317 837.699 130.317ZM849.055 115.273V132H846.612V115.273H849.055ZM852.34 132V119.455H854.782V132H852.34ZM853.573 117.519C853.149 117.519 852.784 117.377 852.479 117.094C852.179 116.806 852.03 116.462 852.03 116.065C852.03 115.662 852.179 115.319 852.479 115.036C852.784 114.747 853.149 114.603 853.573 114.603C853.998 114.603 854.36 114.747 854.66 115.036C854.964 115.319 855.117 115.662 855.117 116.065C855.117 116.462 854.964 116.806 854.66 117.094C854.36 117.377 853.998 117.519 853.573 117.519ZM867.468 122.517L865.255 122.909C865.162 122.626 865.015 122.357 864.814 122.101C864.618 121.845 864.351 121.635 864.013 121.472C863.676 121.309 863.254 121.227 862.748 121.227C862.056 121.227 861.479 121.382 861.016 121.692C860.553 121.997 860.322 122.392 860.322 122.877C860.322 123.296 860.477 123.634 860.787 123.89C861.098 124.145 861.599 124.355 862.29 124.518L864.283 124.976C865.437 125.243 866.298 125.654 866.864 126.209C867.43 126.765 867.713 127.486 867.713 128.374C867.713 129.125 867.496 129.795 867.06 130.383C866.63 130.965 866.028 131.423 865.255 131.755C864.487 132.087 863.597 132.253 862.584 132.253C861.179 132.253 860.033 131.954 859.146 131.355C858.258 130.75 857.714 129.893 857.512 128.782L859.873 128.423C860.02 129.038 860.322 129.503 860.779 129.819C861.237 130.13 861.833 130.285 862.568 130.285C863.368 130.285 864.008 130.119 864.487 129.787C864.966 129.449 865.206 129.038 865.206 128.553C865.206 128.161 865.059 127.832 864.765 127.565C864.476 127.298 864.033 127.097 863.434 126.961L861.31 126.495C860.139 126.228 859.274 125.804 858.713 125.221C858.157 124.638 857.88 123.9 857.88 123.007C857.88 122.267 858.087 121.619 858.5 121.064C858.914 120.508 859.486 120.075 860.216 119.765C860.945 119.449 861.781 119.291 862.723 119.291C864.079 119.291 865.146 119.585 865.925 120.173C866.703 120.756 867.218 121.537 867.468 122.517ZM870.399 132V119.455H872.841V132H870.399ZM871.632 117.519C871.207 117.519 870.842 117.377 870.537 117.094C870.238 116.806 870.088 116.462 870.088 116.065C870.088 115.662 870.238 115.319 870.537 115.036C870.842 114.747 871.207 114.603 871.632 114.603C872.057 114.603 872.419 114.747 872.718 115.036C873.023 115.319 873.176 115.662 873.176 116.065C873.176 116.462 873.023 116.806 872.718 117.094C872.419 117.377 872.057 117.519 871.632 117.519ZM885.527 122.517L883.314 122.909C883.221 122.626 883.074 122.357 882.873 122.101C882.676 121.845 882.41 121.635 882.072 121.472C881.734 121.309 881.313 121.227 880.806 121.227C880.115 121.227 879.537 121.382 879.075 121.692C878.612 121.997 878.38 122.392 878.38 122.877C878.38 123.296 878.536 123.634 878.846 123.89C879.156 124.145 879.657 124.355 880.349 124.518L882.342 124.976C883.496 125.243 884.356 125.654 884.923 126.209C885.489 126.765 885.772 127.486 885.772 128.374C885.772 129.125 885.554 129.795 885.119 130.383C884.688 130.965 884.087 131.423 883.314 131.755C882.546 132.087 881.656 132.253 880.643 132.253C879.238 132.253 878.092 131.954 877.204 131.355C876.317 130.75 875.772 129.893 875.571 128.782L877.931 128.423C878.078 129.038 878.38 129.503 878.838 129.819C879.295 130.13 879.891 130.285 880.626 130.285C881.427 130.285 882.067 130.119 882.546 129.787C883.025 129.449 883.265 129.038 883.265 128.553C883.265 128.161 883.118 127.832 882.824 127.565C882.535 127.298 882.091 127.097 881.492 126.961L879.369 126.495C878.198 126.228 877.332 125.804 876.771 125.221C876.216 124.638 875.938 123.9 875.938 123.007C875.938 122.267 876.145 121.619 876.559 121.064C876.973 120.508 877.545 120.075 878.274 119.765C879.004 119.449 879.84 119.291 880.782 119.291C882.137 119.291 883.205 119.585 883.983 120.173C884.762 120.756 885.277 121.537 885.527 122.517Z" fill="white"/>
</g>
</g>
</g>
</g>
<defs>
<filter id="filter0_i_267_810" x="-194" y="-233" width="2180" height="2144.61" filterUnits="userSpaceOnUse" color-interpolation-filters="sRGB">
<feFlood flood-opacity="0" result="BackgroundImageFix"/>
<feBlend mode="normal" in="SourceGraphic" in2="BackgroundImageFix" result="shape"/>
<feColorMatrix in="SourceAlpha" type="matrix" values="0 0 0 0 0 0 0 0 0 0 0 0 0 0 0 0 0 0 127 0" result="hardAlpha"/>
<feMorphology radius="24" operator="erode" in="SourceAlpha" result="effect1_innerShadow_267_810"/>
<feOffset dx="24" dy="32"/>
<feGaussianBlur stdDeviation="92"/>
<feComposite in2="hardAlpha" operator="arithmetic" k2="-1" k3="1"/>
<feColorMatrix type="matrix" values="0 0 0 0 0.0235294 0 0 0 0 0.0313726 0 0 0 0 0.34902 0 0 0 0.75 0"/>
<feBlend mode="normal" in2="shape" result="effect1_innerShadow_267_810"/>
</filter>
<filter id="filter1_i_267_810" x="28.0001" y="-62" width="1694.33" height="1667.38" filterUnits="userSpaceOnUse" color-interpolation-filters="sRGB">
<feFlood flood-opacity="0" result="BackgroundImageFix"/>
<feBlend mode="normal" in="SourceGraphic" in2="BackgroundImageFix" result="shape"/>
<feColorMatrix in="SourceAlpha" type="matrix" values="0 0 0 0 0 0 0 0 0 0 0 0 0 0 0 0 0 0 127 0" result="hardAlpha"/>
<feMorphology radius="24" operator="erode" in="SourceAlpha" result="effect1_innerShadow_267_810"/>
<feOffset dx="24" dy="32"/>
<feGaussianBlur stdDeviation="92"/>
<feComposite in2="hardAlpha" operator="arithmetic" k2="-1" k3="1"/>
<feColorMatrix type="matrix" values="0 0 0 0 0.0235294 0 0 0 0 0.0313726 0 0 0 0 0.34902 0 0 0 0.75 0"/>
<feBlend mode="normal" in2="shape" result="effect1_innerShadow_267_810"/>
</filter>
<filter id="filter2_i_267_810" x="-99.9988" y="206.877" width="1442.45" height="1421.53" filterUnits="userSpaceOnUse" color-interpolation-filters="sRGB">
<feFlood flood-opacity="0" result="BackgroundImageFix"/>
<feBlend mode="normal" in="SourceGraphic" in2="BackgroundImageFix" result="shape"/>
<feColorMatrix in="SourceAlpha" type="matrix" values="0 0 0 0 0 0 0 0 0 0 0 0 0 0 0 0 0 0 127 0" result="hardAlpha"/>
<feMorphology radius="24" operator="erode" in="SourceAlpha" result="effect1_innerShadow_267_810"/>
<feOffset dx="24" dy="32"/>
<feGaussianBlur stdDeviation="92"/>
<feComposite in2="hardAlpha" operator="arithmetic" k2="-1" k3="1"/>
<feColorMatrix type="matrix" values="0 0 0 0 0.0235294 0 0 0 0 0.0313726 0 0 0 0 0.34902 0 0 0 0.75 0"/>
<feBlend mode="normal" in2="shape" result="effect1_innerShadow_267_810"/>
</filter>
<radialGradient id="paint0_radial_267_810" cx="0" cy="0" r="1" gradientUnits="userSpaceOnUse" gradientTransform="translate(2021.5 483.056) rotate(-166.561) scale(2078.41 3086.66)">
<stop stop-color="#D9D9D9"/>
<stop offset="1" stop-color="#0AC60A"/>
</radialGradient>
<clipPath id="clip0_267_810">
<path d="M0 0H1440V219C1440 227.837 1432.84 235 1424 235H16C7.16349 235 0 227.837 0 219V0Z" fill="white"/>
</clipPath>
</defs>
</svg>
